<mxfile host="app.diagrams.net" modified="2024-06-09T13:36:24.330Z" agent="Mozilla/5.0 (Macintosh; Intel Mac OS X 10_15_7) AppleWebKit/605.1.15 (KHTML, like Gecko) Version/16.5 Safari/605.1.15" etag="n9TXQY8xqZUVwZb05XoN" version="24.5.2" type="device">
  <diagram name="第 1 页" id="cIBbf4D8KeC9FKSFStkh">
    <mxGraphModel dx="2817" dy="1287" grid="1" gridSize="10" guides="1" tooltips="1" connect="1" arrows="1" fold="1" page="1" pageScale="1" pageWidth="827" pageHeight="1169" math="0" shadow="0">
      <root>
        <mxCell id="0" />
        <mxCell id="1" parent="0" />
        <mxCell id="25SHGIR70uyaGyyu53Ls-11" style="edgeStyle=orthogonalEdgeStyle;rounded=0;orthogonalLoop=1;jettySize=auto;html=1;" edge="1" parent="1" source="25SHGIR70uyaGyyu53Ls-3" target="25SHGIR70uyaGyyu53Ls-7">
          <mxGeometry relative="1" as="geometry">
            <Array as="points">
              <mxPoint x="330" y="612" />
              <mxPoint x="330" y="612" />
            </Array>
          </mxGeometry>
        </mxCell>
        <mxCell id="25SHGIR70uyaGyyu53Ls-3" value="" style="shape=image;verticalLabelPosition=bottom;labelBackgroundColor=default;verticalAlign=top;aspect=fixed;imageAspect=0;image=data:image/jpeg,/9j/4AAQSkZJRgABAQAAAQABAAD/2wCEAAkGBxITEhITERIWFRAVFRUWFxYRFhUYFRAYFREaFxcSFhMYHCghGR4lGxYVITEiJSkrLi4uFx8zODMtNygtLi0BCgoKDQ0ODw8PDysZFRkrKysrKy0rKys3KystKy0tLSsrKystKys3KystKysrKystKysrKysrKysrKy0rKystK//AABEIAOAA4AMBIgACEQEDEQH/xAAcAAEAAgMBAQEAAAAAAAAAAAAABwgBBQYEAgP/xABJEAABAwICBwQECQkGBwAAAAABAAIDBBEFIQYHEjFBUXETImGBQnKRoQgUIzJic4KisSQzNVJTsrPBwkOSk6PD4RUlVGN0g4T/xAAWAQEBAQAAAAAAAAAAAAAAAAAAAQL/xAAXEQEBAQEAAAAAAAAAAAAAAAAAAREx/9oADAMBAAIRAxEAPwCcUREBERAREQEREBERAREQEREBERAREQEREBERAREQEREBERAREQEREBERAREQEREBF8yPABJIAGZJyA81yuK6yMLp7h9ZG5w3thvK4HlaMHNB1iKLKzXnQN/NwVEnjsxsHvdf3LUS6/Bfu4cSObqkA+wRH8VcE1IoVj1+Z97DiBzbUgn2GIfittR686B352Coj8bMePc6/uTBKiLk8J1j4XUWDKyNrjkGzXiJO61pAM7rqo3ggEEEHcRmD0Kg+kREBERAREQEREBERAREQEREBERARYJUfaw9Z8FBtQw2mrbfNv3IMsjKRx47Az6b0HaYvjEFLGZamVsUY9J5tc8gN5PgFEGlOu83LMOhFv21QDn4thH4uPkopx7HKisl7WqldJJwvk2MfqsaMmjotctSJraY5pDV1jtqqqJJc7hrz3G+rGLNHsWrCIqgiIgIiIoVs8D0hq6M3paiSLO5aw9x3rRm7T7FrEREz6La8DcMxGEW/bU43eLoT+LT5KX8IxiCqjEtNK2WM+kw3seRHA+BzVOVssBx2oo5RLSyujfle2bZAPRew5OHVTF1cJFHurvWhBX7MM9oa3g2/cn8YieP0Tn1Ug3WVZREQEREBERAREQEREBYKyo01w6fGij+K0zvyyVty4HOmjOW165ztysTyuGs1r6zzAX0dC75cZSzg/mOcbPp8z6Pid0FON7km5OZJzJJNySeJWEW8QReqmw6eQF0UMsjRkXRxveAeRLRYLy3zI4jeOI6hEEREBERAREQEREBEvw48ua9VThk8bQ+SCVjDYB0kb2tJO4bTgAg8zTYgjIg3BGRBG4g8FOuqjWgZ3Mo653y5sIpifz5/Zv5P3WPpeB3wSiYq6YWVGmp7T41sfxWpd+WRNuHE51MYy2vXGW1zuDztJawoiIgIiICIiAiIg0ul+kEdDSS1MmewO629jK85MjHU+654Kp+J4hJUTSTzO2pZHFzjzJ4DkALADkApE17aS9vVtpGH5Kl+dydM8C/91th1c5RitSIIi+ZNx6H8FUWn1T4WKfCqRtrOkYJneLpu/n0BaPJbrHNHKSrbs1VPHKOBe0bTfVeO83yK/fAmgU1OBu7GK3TsxZe5YaQZphqUezakw2Tbbv+LzEB/wD65tzuGTgOqikYZP2roRBKZ2mzoxG8yN6sAuP91clYAV0VXodXGLS5topGjnKWR+5zgfctrHqcxY72QjrMP5AqyiJpitj9TeLDcyE9Jh/NoWqrdWuLRXJonuHOJzH+5rr+5WoRNTFNZ8NnZIInwStmcbNjdG8Peb2s1lru8lKeh2pWWS0mIvMTDY9jEQZD68m5nQXPiFOxCymq0+A6MUdG0NpaeOPKxcG3e71pD3neZXk1h4V8Zw6ritdxic5nrxjbZ72hdGvyqQNhwO7ZdfpZQUwBRfMe4dB+C+ltl6sMxCSnmjnhdsyxODmnxHAjiDuI5Eq2GiGkEddSRVMeW2LObe/ZPGT4z0PtFjxVRVJuorSb4vVupHu+Rqvm33NmaO7bltNu3xIapViw6IiyoiIgIiIC1ukeKtpaWepdmIY3Pt+sQO63zNh5rZKLvhBYr2dDFAD3qiYXHEsiG2773Z+1BX+ad73OfIdqR7i9zj6TnHacfMkr4RFtkSyLsdVmigxCtDZBemhAkm+kL2ZF9o7/AAa5FT7q1q3S4XQve0h3YMb3hYu2Bsh48HAA38V0y+WMAFgLAZADcAOFl9LCiIiAiIgIiICIiAtLppWPhoauSNpc9sEhaGi5J2CAbDgL3PgCt0sEIKVtGQWV3et/RJtBWB0LbUtQHPYBujeD8pEPAbTSPB1uC4RbZF9wTPY5r43bMjHBzXDe1zTdrh0IC+EQXC0cxZtXSwVLcmyxtfb9Ukd5vkbjyWyUW/B9xXtKGWnJ71PMbDkyXvt+8JPYpSWGhERAREQFAPwh6zarKWHhHAX+cshH+kFPyrVrykvi0g/VhhH3S7+pWDgERFpkVidQuEiLDjNbv1ErnE8SyM9mwdMnH7SrsrVarG2wmgt+xafaSVKsdUiIsqIiICIiAiIgIiICIiDgdduFCbC5X278DmTDoDsv+65yrSra6wGg4ZiF/wDpKg+yFxHvCqUtRBERVErfB4rNmsqov2kAf/hSgf6p96n4KtOo2S2LRD9aGYfdB/krLLNWCIiiiIiAqza7W2xefxjhP+WrMquev2m2cTa/hJTRnza97SPYG+1WCN0RFpkVpNUU4fhFFb0WOYerJHNP4Kran/4PmKh9FNTk96CYuA5MmG0PvNkUqxKqIiyoiIgIiICIiAiIgIiIOa1lT7GFV5500rf77dj+pVQVitfWKCPDeyv3qiVjAOOyw9o4/daPtKuq1EoiIqju9STb4vB4RzH/AC/91ZlVz1B0+1ibncI6aU+bnsaB7z7FYxZqwREUUREQFC3wjcPNqGoG4GWF3Vwa9n7j/cppXH62MGNVhlSxovJG0TMA37UXeIHiW7Q80gq2iAotsi7LVTpMKGvY6Q2p5h2MpO5gJuyQ+q4exzlxqFFXTBWVC+qTWY3ZZQ1zw0tAbDO82DhuEMhO4jKzuIyOYuZnCwrKIiAiIgIiICIiAsXS6iXWxrMZEx9HQv2qh12yysOVONzmNcN7+GXzeqDg9cukwrK4sjdeCmBiaRmHPJvK8HlcNb9hcEgRbZERCUE1/Bzw42rqgjImKJv2Q57/AN6P3qaVx+qfBviuGUzHC0kje2eDvDpe8AejdkeS7BYaEREBERAWHC+/csogqXp5o+aGunp7fJg7cXjE/Nnszb9lc+rE679EjVUoqYheopQ4kDfJCc3t8S220OjuarstxKl7Q/VJSVtHDUCtkL5GAuEbY9mJ9u9EQQTdpy3i/muY041ZVeHt7XaFRS8ZY2lpi+sjudkeNyOdloNFtJqmgmEtM+2Y22Ens5gPRe3jxsd44K0WjONwYhSMnjAMcjSHsdY7DrWfE8cbZ9Qb8VngqKu10P1nV1CBHtCenFgI5ybsA4RyDNvQ3HgvnWloYcOqvkwfic13RHgw+lCTzHDmCORXGLXRYzA9c+HTACftKZ/HtGlzPKRl/aQF2OH6UUM+cNXA/wAGysuOrb3CqEpA1MaKsrax0kzQ6Cla15a4XD5HkiNpHEd1xt9EKWCyYKysALKyoiIg1OIaTUUAvNVwR+vKwE9Be5XIY3rlw2EEQufUv4CJpDfOR9h7LqOdd+ijKSqZUQMDYana2mtFmslbbatbdtAg25tco2VxHeaXa1a6tBjZamgNwWQuJe8EbnzWBI6ALgwiLQIiIgug0C0fNdXQU9rxk7cvhEzN9+uTftLn1YnUhomaWkNTKLT1Qa4AjOOIZsb4E3Lj1byUqpKAtuWURZUREQEREBERBghVp1taEf8AD6jtYW/kU7iWWGUD95hPhvLfC44Ky68GN4RDVQSQTsDopBYjiOTmng4GxB4EIKdKStRekhp600rz8jVZAHc2ZoJaRy2hdvjZq5rTrQ6bDZ+zku6F1zFLawkA4Hk4cR5hc2x5BBaSHAggtNi0g3BBG4g2N1vqLh45g0FXC6CpjEkTt4O8Hg5pGbSOBChfHtRtQ1xNFURyR8G1F2PaOW20EO62aui0D1wQTMbFiLhDUAAdqfzM30if7N3MHLkeAk+kq45W7UT2vbzjcHD2hZ4qvlHqTxJxAkfTxt4kvc89Q1rM/aFL+rvQtuGQPiEvavkftvfs7Avshoa1tzkAOJ4ldU4gZnIeK+IJ2PF2Oa4XtdpBAPK4TR+iIigIiII21+0odhYfxjqInD7V2H95V0VlNen6Jl+tg/jBVrWolERFUERdJoLodNiU/Zx3bC2xlltcRA8BzceA80G51TaEGvqO1mb+RQOG3cZTvGYhHhxd4WHFWWaF4cDwiGkgjp4GBkUYsAN55uceLicyeJK96zrQiIoCIiAiIgIiICIiDX47gsFXC+CoYHxPG472ng5p9Fw4EKtun+r2ow1xfnLRk2bMB8y5yZKPRPC+4+G5WiXxLEHAtcAWkEEEAhwO8EHerKKXI0WNxkeY3qddNdTEchdLhzhE85mCS/ZOP/beM4+liOihnGcHqKSTs6qF8UnAPGTrcWu3OHQlXqPDIS75xJ9Y3/FWL1A/or/6Jv6VXNWL1Afos/8Akzfg1KJJREWVEREEfa9Xf8pk+tg/igqtisjr3/RL/roP4irctRKIvbhGEVFVJ2VNC+WTlGL7Pi525o8SQpl0J1MMjLZcSc2V28U8d+zb9Y/+04ZAAesrpiP9X+r2oxJwfnFRg96Yj59jmyIekeF9w8dysjgOCwUcLIKdgZG0buLjxe4+k48SvdDE1oDWgNaAAGtAAaBuAA3L7WNUREQEREBERAREQEREBERAREQF5cQw+KdhjnjZJGd7ZGhzT5FepEEaYtqUw6V+1E6an5tjcHM8hICR7bLttGcBhoadlNTgiNl83G7nuJu57jxJK2qICIiAiIg1ukeCQ1tPJTTgmKQC+ybOaQbtc08CCAVwmFak8PjftSvmnF7hj3BrPMRgE+1SaiDyYbhsNOwRwRMijG5sbQ0dbDefFetEQEREBERAREQEREBERAREQEREBERAREQEREBERAREQEREBERAREQEREBERAREQf/Z;" vertex="1" parent="1">
          <mxGeometry x="-30" y="498" width="224" height="224" as="geometry" />
        </mxCell>
        <mxCell id="25SHGIR70uyaGyyu53Ls-4" value="&lt;font style=&quot;font-size: 36px;&quot;&gt;Repository&lt;/font&gt;" style="text;html=1;align=center;verticalAlign=middle;resizable=0;points=[];autosize=1;strokeColor=none;fillColor=none;" vertex="1" parent="1">
          <mxGeometry x="-18" y="430" width="200" height="60" as="geometry" />
        </mxCell>
        <mxCell id="25SHGIR70uyaGyyu53Ls-6" value="" style="shape=image;verticalLabelPosition=bottom;labelBackgroundColor=default;verticalAlign=top;aspect=fixed;imageAspect=0;image=data:image/png,iVBORw0KGgoAAAANSUhEUgAAAtAAAADICAMAAAD2kyZxAAABblBMVEUAAAA/RFoXK0Hax7sUKDzt078UJjz9+vfZuqT54M0SJTqvcU358ekQJTrgmmoSJTn14dIQJDnsroISJToSIzkRJDjy6uYQIzn4rXX4xp73q3T16+YRIzmuaULfh0wRIzkRJDn4sXwQJDizdFHJn4j3sX728O32oWIQJDn0dyD6+Pavb0eWRBcQIzn4jkPPYx0QIzj3r3yaTB/Kn4X6zKj1ijwQIziYRxubSh32hzn1iz/3iz4QIzj0lVP2gC2ZRhcQIzj3rnf1gzPs4dgQIzj3fiz38OnicyeaTiOWTCUQIzj3hDT1hTT3hzacUCH5gS33hTXsqHe8ZCiiUyeeUST1hDf1hzn1hDWeUCT3hDadUCScTyP2hjfEaCv5iDX5hjaZSBuucUnTbyz7hzb1fiqbUSSeUSb+ijf2hTX2gzH8nVvEbzX6fijfeDPHai/7iDLfeDL/2r77ijXeejadTiXKnYCZTCPqfjT6iDfofTD8Dgo9AAAASHRSTlMABQ4SGBskJSwtMTo6PUBFSk1OUlZaW15kZGRkZWZobHZ8gIGChYeZm52fn6Wur7W+vr/Dzs7O0dbX19jc3uHm6+vt8vj5+vwk3vQXAAAACXBIWXMAAAsTAAALEwEAmpwYAAAM+0lEQVR4nO2d/1/T1hrHDRSoUEARUSZcOnDCGGWIWqZD6VynjBbbaW17S6bdDLntLnebbjr972+SfjtJ0zbJaXJODp/3yx8cpG1e8d1nz3meJycXLvjF5oRvb32umdhkfQbnFPjsE7iwAAAAAAAAAAAAsCO6vPX19nVUDoAQRNf2qj/++ka598VF1qcCAC3RtW+qp+qPv/6nVlceQGkQbnSdT15UyprQpVIRSoNQY+isViqVgi50rSbLUBqEFl3niqbzSaURoWsa8qsSlAahZHnX0NmgLXQmKx8jSoMQsnzwrKUzIbTGsSznlG+hNAgVo7vljs8mobW8Iy8j8QDhIqYeFnoJbUiNxAOEiYUBQteKxRyUBqFhoNC1LIp4IDRINwYKXWvUpbE8BGHAkdC1fBFFPMAno1PLn82Ntf5LuuVIaD1KoyEO+CO6tlt9nvvh3vpiw+mJTadCoyEOuENvcpcPn+v5g/JgfTE2Ebv1vXOha6ViPgulAS80RpAKh8+PXxuVi/rD23efPHEhtKY0ojTghNHWRJ0htJ5AZOtK7ref1MOKc6GReABOmNqqnhihuNwUulbL54svc5/KJ+6E1l73Gg1xwJottTmy0RG6lq1lP/5TcS203mtBlAZMiR6oTXHLH9pCa2a+8SS0XsRDQxywQ5qrtmbqCoek0N4itEYGdWnAkJttocvDEbqG5SFgiB9C60rjFgAQHFMzcxdHjb/F7timHHlN6AKF0NqyEokHCIbo2u7B09zje+uLsdjC5vth59BtjpF4AP/Ru4J/q3+9y9YV5fHD796+r5b9iNAGxddQGvjKqLExwUn5z3cvZVnOKMofv3+oPPMnQutgeQj8RO8KqpXTE/V/714ausk9hM4PSWi9Lp09g9LAH7YKhZOCLvSfhtC1bN7nCG18OdAQB/4wc2AsANsRupat+R6h9U/B1jTAF5o1ZyJCZwKI0DpoiIPhM3Gnao3QQaQcBvnXWB6CIaG3Ucak0Vir5uxA6KGmHC2gNKDHaKOcPb6/ffvuW3dC09ehLWT0xAMNcUDB2Npe9eTFp4+lek5R8pq8lhzaJPQHH1MOA+0N9Ib452ODTxwAG6b0DXH/fvHpTUnWOP65r9Bl34XW0Vst21HWFwaEEWlqT1ULFUNoLTxmCKHtUo6y3zl0k2I+8yXrSwNCyVdV/W6UptDZf7/qL7Tvi8IW+eKjGdaXBoSQiV+qFR6FzsrKHOtrA0LIJU6FrsnKZ6yvDQghC79QpRxDL9tBaEDFDXcROqhFIYQG3rhBF6H9FPo662sDQkgfoQc1ViA04A+XQiPlAHzjMuUIUmhEaOAeihzav9Z3Q2hEaOAejoVGhAbu6VO2c7IoRB0a8AVyaCAUFFUOpByAP9ymHFgUAq5BpxAIBaocQCgQoYFQuJ3lQOsbcA3Hi0JEaOAet2W7QO76bgiNCA3cw3FjBUID96DKAYQCVQ4gFBAaCAWEBkIBoW2IjE/PL12dnYxIzE4BeEQ8oaXxFScs9ZA1spRIHbVJ7axEvF9cEDyUVQ4/B/y9RujVI0fYijqf7D4wuTre7+NG5uMbiZ3kTmJj9fKIx1MGQ0PAsp13oWdtdNZJx3vlHtLlRNokfxxOs4ViXw7RhB5J9D54f9r2o6b3u45MrUJplrjcCiwEObRXoce75STZsPmkeNruyP1JjycOhoB4i0KPQs+mBhzfbXSviJ6+5vHMAT0UsxxCpRyTtsHWxKrlc+K9D73s8dQBNYjQBpH++UaDFdPH9PsKpJF1sILjAf8AhZZ2HL2E1HSk71dgHy0ZRlBGaEHq0F0vSW6srm4krGn1DvGSa/3ffcV6ViAYxBZ6/2pP5olXTJplTMVbsk9umH8z23kNGdPTiZX5lQ1TETuF4h0bxBY64ewV5nJFgozdk6bMItn+eYQM3JGuDz46mr8AWECxt10IWt/OhB43+WwpZkSStpquED638+VZ4ki7ujXwH463AvN6C5ZroU15RZeI42Q1o/2GnYwjTUx6EKE+5fHsAR0UnUJRhI6Qxia7yxNEMO5o2lkvkitFUn5M6TFB7Gk7R0IvkQF61uYAMo1uhmOp8xNTPYPIT1CKZoLYjRVHQpMZx47dAeRir5lEE2m3SVwi57D7agDfoXxOoQgRmgzAtj1rctHYXDISyz9TakF8OVDmYALKdqSuKfsG31L7Ppd4Mx530pS06UiiOn3F4+kDKig3mhFAaLLl17vWJhl/2lxNtUiaDiN6i/YT1MBnXNahw7AVGCF0croHRKmNTKFp5z7JaI9FIRMoB/x5fGiQk1mO/c7hZJuQVkLiy5HGeBITKOvQnKccToQm0l5aCclOoW29BPiO2ItCJ0InbX/qBdNEaZzuvYBHOL7rO6CUg7CQMqqSyUsajUI2iN0pdCI00a2mEloyzexhNokRlDv4h39RSDSxnU6b2hIx3fSCAM0Kyptkwx+hJaJ0TBFWzXPTuGGFGRTjo4IsCocSoVfMd8zShHpAhdjDSU6EJiK01xzauudSAjVoZohdtut5TyExCkfkCsneb9oPS7pB3MICAkdsoZ38r5+oQ6c8fZ51Q7AE7o9lCIQmqxMeahNdWzxaN1gCgcLxLEdAQpPDSe6H8q3pRgpz/WxBhCZvGYzbHzLZGdOzpBNXLOlGsu/e6MB/OBY6oJtkJ0kfbY8g76I1F5it2yetYjnIGo6FDihCS2SQtZ0fJWP4dK9fHPXcFR0EiVuhPwgntGlVaNsr7DVgarpdHNUNPqDYfTQEsxyOhCYbMXb74JI5Cdl6mTblz+klj6cLhgpSDvNOYDZZNLkXWLzz44hpb1KsBjlB7PFRZzMVpjnmrqSDTCzIITrztCjSDU6g3KyR8wF/Z0KTd051pdFXbLe2s2zBi2YKN1Du4C9EhDYlFUfpHSJ7kMx9baKMMXApCZggdqfwKNWHzi5J86YQfZRebS4NR66a+4DEkpDcH/oobvfsZSTVTBB7UdgXYhOODevv9hMbGwnrc2XJjXP7PAKrZTnNPwvwCuX+0IIIbf8EIOtjrsguYY+HKENo1lBs1iiQ0BemHRxPjjmPDz48TvGvAjzDcdnOz5tkrUJbu342JMnK3MrAwyE0G5BDN7HOzVnZN1Wau5JuCM0JYu8+6kLoC9N9H/a9Y5797/WYbwjNGkToNpN9HidrnQsdvCaE0Gw4pxvN2AmtpR09Hnec7LoNpW80h9AMEfCxboNLxA1sttiXVmxC7073XVWSA6Gx1wwTBOwU0hFZIh/xnUqg4xcuBMyh6RkZn76ytHJtdhIyhw4IDYQCQgOhgNBAKAS8pxCcZxChgVBAaCAUHHcKITRwD6XQPG54Ds4zSDmAUFBuYwChAV8gQgOhoHysG4/TduA847axEoLdR8F5BikHEAoIDYTCZZWjHILNGsF5BkIDoUDKAYSC4hkrGB8F/OE25QjBY93AeQYpBxCKBX63MUCEBu655H18NI8qB+COCS3lqHjfrNFPoedYXxsQRr5yJXRwKUfx0QzrSwPCyNReWa08awhd4kTofKZYzHzJ+sqAcDK1W1XV0xefPr6UX8vHeR6Elot1ZTvK+sKAUCJJY2t71bImdL2eU5SP//1QcLEo9EXoYka5//kY6wsDwkt0bffg6dnjB9u37759b+TUrKocGU3nunL/i4usLwkIOVMzcxfHpNHYZkdoFimHXMxCZzBEJu64itDDFFqLznIJOoPhctNxhB7ucFImKyPZAMNn5oBJhM5AZ+APW6pqErqUCUBoGckG8ImprWpBPT2pGEKXSkVZfvX7YdtZP+5YQXQGfjK69k21opYNoWU5oyi5nxu1ab9yaOgM/CWqKV1W/3pXqivK44fftWrTftShM0UZOgPfia7tVp+e/XBvfTEWW9jsCD3slAPJBgiI0al/Xb/U6D/H7thGaPqUQ9ab3NAZBIHUebq1dLMToYeWcmS0/BzRGTDhpg8RGk1uwIw52whNk0PLRdSdATOiB2qP1nfZvdDZDJaCgCmS3j0sdEfokiehM0g2AGumtqqVRtbRFroky6XcJ7dCZ9DkBjzQ6B6enjYidCmbleWcUv/tp8KhK6EzyJ0BJzS6h4297WS5fnb27e27T56oroR+idwZ8IOudOH0efFjVlHury9enIjd+t6F0BnUnQFnRNf2qs9zyqP1xUYLcWJTPSw4EzpblNEVBNwxtry2fr1tpXTLqdAo1IEwcMOJ0Pq9gtAZhADJkdCobICwsOBAaOgMQsMAodHkBuEi1ldoNLlByBjdPSHm7SxCl9DkBmFj+UBVT22E1reNQd0ZhI/l3dbYkklo5M4gpBgNcU3pMiG0PusBnUFIaYwtaYlHwRA6iwFREHJ0pVW1GaGRbIDw04jSmtBFJBtACPRJPE1o5QF0BmIQXd76evv6BOvTAAAAAAAAAAAAAAAgEFAJ8wlcWDZs4sKD4Pk/NGzhRk6MLS8AAAAASUVORK5CYII=;" vertex="1" parent="1">
          <mxGeometry x="374.75" y="170" width="434" height="120.56" as="geometry" />
        </mxCell>
        <mxCell id="25SHGIR70uyaGyyu53Ls-7" value="" style="rounded=1;whiteSpace=wrap;html=1;dashed=1;" vertex="1" parent="1">
          <mxGeometry x="403.5" y="310" width="376.5" height="660" as="geometry" />
        </mxCell>
        <mxCell id="25SHGIR70uyaGyyu53Ls-8" value="" style="rounded=1;whiteSpace=wrap;html=1;" vertex="1" parent="1">
          <mxGeometry x="437" y="380" width="313" height="540" as="geometry" />
        </mxCell>
        <mxCell id="25SHGIR70uyaGyyu53Ls-9" value="" style="shape=image;verticalLabelPosition=bottom;labelBackgroundColor=default;verticalAlign=top;aspect=fixed;imageAspect=0;image=data:image/png,iVBORw0KGgoAAAANSUhEUgAAARcAAACDCAMAAACQja8HAAAACXBIWXMAAAsSAAALEgHS3X78AAACDVBMVEX///8Ab7YAb7YAb7YAb7YAb7YAb7YAbrQAb7YAb7YAbrUAbbMAbLIAb7YAbrUAb7UAb7YAbrUBcbcAb7YAcLcAb7YAb7UAcLcBcbcAb7YBc7kUerwAcLcAcLcBcbgBcrgAb7YDdrsIhMYAb7UAcLcDd7wAcLcCdLoGfsEBcbcBcbgAb7YAb7YAcLYAb7YAcLcAcLcAcLcGc7gAb7YAcrEAda0Ad7AAe7YBcbgBcrgBc7UBfbgCdLkCdboDdrsDeL0Dgr0EebwEeb0Eer4Ee78EhL8Fe74GfsAGfsEGhsEHgMEHgboHgcQHiMQIg8MIhMYJhr4Jh8gJicMJjcgKhcUKissLiMYLjc0Lkc0MisgMkM8MlM8NjckNk9IOgroOj8sPg7oPks0PltQQlM4QmdYQmtYRl9ARmNERmNIRmdIRmdMRmtQRnNkSm9USm9YSnNcSndgSntkSntoSn9safr0df70hpd0th8EuotUwq+A8j8U8lL49lsA/seJLmcZNt+ROXGRUqNBaoMxfrNFkcHdmud1pqNBrw+lveoFvtNZ0v993w+V6yet+vNh/vdqIuNiJz+2QmZ6XwduY1e+bo6en2/Kv1uixt7u10eO8wsXE5/bU4urW5+7f7vbi8/vj6u7q8vbx+f3y8vLz8/P09PT09fX19fX29vb39/f4+Pj5+fn6+vr8/Pz9/f3///8/HpedAAAAM3RSTlMAECAwQFBgYXCAgYKDkJGXoKGmsLXAwcTI0NDQ09bZ3ODg4OHk5Obo6Ors8PLz9PT19veYCnP4AAAIUUlEQVR42u2c+X/TZBzHc7QxUavRWLWe2TxAoqJ+xU1FZVqZIg4rygSp064GBkwm8UYF7/u+8Z6i4tG/0efKkydZtha2lzZPn89PYQvd8t73fp48mqakpKSkpKSkpKSk9B+oCqJKCoji0oXLcBTrPMUlxaW5b18rarcVlwwXaDbrUaOhuCguiovioriofKTql/9JJehFioviwrlwfxmGIX491NWPqmXZuTQno8l21CBcJpvooj1JuDTa6KLZzOfiAHi63Fwa9ajejIBwqTfQBUrPQ13ytInd6wJdcVmQr+o7bpQYzAlyQebSjloSgzlBLi7chQIyAuMpLqJ82IEz1Q6Asrxc2q2otS9qEi6tNrpA5f/Qkn2AAbCPpPDNcKlMMBLZgKyCaTWs4terYDW/vhhs4X9QmrfR0qYtVc0HyxEtXuqs5tsMFZm4rBpiWgUQXw6tgbX8ei2s4ddXJrcPxVwajMsOuAjbnykJl2Zc4zd76gP47VGWS5vbUa1SkoBLqx5NTkZbWpjL5BZ0EdUJly2T6KK1hXCpt9AFuuu85PYo60eR6GI1s/BcmoAzcL3Z7ClP89sZFx53owPj26ZCrKlt44iMM9hcDFzuEu0PEz22HqqDzUWrwYPUXHaLXIqetJfPxYZbSGE3K2AJx+DcAY8vmh7AZmwuuwQsEwDFj7vLy9OmG5AII5rLtiJHXcPBAlg9zLQaIL4cvgzW8Os1cBm/vjy5fRg9vFNFUOCWVhQ9mZjL9EaAM4trKTasjO4i7fTemMrU+CgUuiE4Gdbffkd9WWo0HmRuNYecZ2Ji09gYJnVpoVPRqTAR7olWSLvD6VFmP17BxzCYy8wKYXkCx9orULgqF79rPAVx2bUyWHDQXV/wwl+ILxNhuDJcZrC5XKtLxGVuhbwImcuZmixcNobh/hXyIlTJGdKMucfCcHZFcpFE0YWsh4Xh7uVjmSX90LXyrKoBoDHSgeVimcNThVGw5Rl5nw3blh9gSF80hife0ug0GA/DvfmP+9KRTueLZ7pjIcOoBwo/VUipDKNhuCvfkX7ofPNV50hvWKZAnqBLFMD2RRzpUOebw68f7TzTQ0EXTq8v+mwuqzOwI83kc3n78OHPO4e6YNlLR5bXSLbDAy3UT+eXvM93jr79SefnXrCMS7gV8RLcCuQazGedo53OW0vHlhmGxZINi3YSjC5iMNGhjz9+vnvIxVgcTT5dApsWpKSHH++5bsFYXAmxoFSNa17Rkx7aMHJnjy20vFhwzXvrdFLcPXzvzSMjI68c6lq27CFz/1tBpvI/JeNquOme++67f+vWrXdvQExGHnnn+84PXeqWOeJDO0dlDLmCJ12/bt26GzCTkUdf+7KD9cWSkWUmXlK8ytTk1ekALx88ePDFDz788vtOrPcXp0IXinYiHzpL4r3vGt5/Cx/Nz8//8mdH0FtLUnkMBdxrbE1yITCv/ojI/PrX0mAO7Kc7OaYnUGQ5x9CkVwXgqa/nsc0c+4eD+SxjKfv3sJ0tm0aLvqLYe/BFq++vfovJzP/6x59/UzBH4nr3wNwTe+M9P9s34nVWSxsQGfhsCkYGw/nt92PHjv303uzs7MxMsn1jO16ShwsHhgrprX30yC98ytEQffcGZzL1wEYMZa1ragMmi5xn8uybn34tknn3uamdaJ8CWZG/yi1rgyijUmN7El6I9TTf5lJ1BvnNacOqnH9dZuPPBVXHMjUl8pJJGW/aKMmy219JSUlJSUlJApnHXZcYg1DuVo97q7qFXs2Tv9qPX/LtXbjdlr5rLB0/FwA5V1wVF8VFcVFcFBfFpU+KFqdKz5Qw01xKLpnqVu3McrPl4Xc6fc/K4aJXgmQvQ9nFxU2QfABadUHbYnSbvBTqu31dKOuVZGBbtRIupnCquWgPeKmNyS9nuZBFlfgDavzGgN2AFnbBcpIP6OMFJ9PPPdRGs4LUIRzcZNzUrU6Ki06/GcT9gaCqzrqMlPz+xRLkH/ZjZb4Wg3EzXzcELrElOYt+QJZL355goVNb913b4ktEmIsZH2Nj2S41KNobOtQgPKfkeMwTYhK6x3zG5gEcry2V7QrF5Qlc0M8rozfP+/coGEcMH3bAuRBGQVkMQHbcVkLV4AEo4H4U+x09D1MnMGs0sOr0p5Q5l0q/7xvSg9QBscypmBP4ujBKoFGDeFGy0dK04rhrsCdmKOkr+7X0B/gxl/5f3ie/rzBvsRkXL3Oerkf/3noaV1K/1JixuPH3sL0Fwo0EqEm5FOD0Qy/z61P/oc8q7r/VKb8S5MxahOxSSt3vCefZWdTbCJcCbL6rZnMCiQQ0jKR2ydXIjU7eY+Vll/wDnl3y8/z+x7Kwhi8TLqUFx1K7nIuvLcolMbF8LlXCxR0oLrSuqSzJpUK4FKGXWuBHlRPzI1SI2GKqyeWC0ntRuOTGXR+/x5dOG4YQd61FbM4VwUC+wxSFi5X5/W32by+TeKpCng70RXyRgAnMJK8ZheVC6zorXdeZzA8CI4XLjx89MaSyJXKhPQUFY6XrOqOsF4oL6wNYXe7wPoYaCO104sbH4n0Aa2vwTMEXYzcFQ+s+sQ8wvBhyYbhQg8eNoOPR/pC6CesIai47WCwOz+xIrmrFobMslLWEnGYE3EzixhNtOiNTLBrGi8NFr6WTBosPNGF3nzMgimKupzjdvDlDqVhcMmAC3vmXgoVjJZ7JxYFbel632GDL1QrGBYWV5AFcIdcYXkJLrGVKyYCPxA8vlXksPq/TjGQKFVgJ1OKsZes2ji1oPG0smIcjZDXPymTmskvqQXb0sun5qfGv7yf5rUI+wOVfMNxAopO+lZSUlJSUlJSUlJSUlJSKr38B2JVxnNwCi1oAAAAASUVORK5CYII=;" vertex="1" parent="1">
          <mxGeometry x="454" y="330" width="279" height="131" as="geometry" />
        </mxCell>
        <mxCell id="25SHGIR70uyaGyyu53Ls-10" value="" style="shape=image;verticalLabelPosition=bottom;labelBackgroundColor=default;verticalAlign=top;aspect=fixed;imageAspect=0;image=data:image/png,iVBORw0KGgoAAAANSUhEUgAAAtAAAALQCAYAAAC5V0ecAAAACXBIWXMAACxLAAAsSwGlPZapAAAAAXNSR0IArs4c6QAAAARnQU1BAACxjwv8YQUAAI6rSURBVHgB7d0NkGZZXd/x/yyw4LIwuyDvwvaAoTCA27tSGom6PRUgxlRqe8iLpIKZnkTAGM3MYBQSSGYGUkGJyc4YU0mMMr0klpYK02sgvoBOb0lptNDtRWKilUr38CIlb7sLyPvuzf0//ZzZM2fOOffe57n33HPv/X6qznb389znPs/2dPf99b//55wDAgBopCiKlfm7+vaG+TAfq5usw1cC7xv245vYcz6+fz58H19ybtuzPz5w4IB7LgBAxAEBgIkrA7EJsavycKBdKcdBuTIkr8i47cmVIfsB631z314ZuO8XAJgwAjSAUfOE4xXZrxCvyNUVZNS3Iw+H60tihewyYO8IAIwYARrA4M1D8orsh2R9e5NcGZiR3p41NGCbwL1DBRvA0BGgAQzGvPfYhOSb5eEq8opgSGZBuhz3yn7A1vcJ1gAGgwANIDvzivKqPByWb5OH2y0wXgRrAINAgAbQK6eqfJv1PmBokN6T/WC9LYRqAD0jQANIZl5ZXpOHw7K+T1UZi9iTh6vV20KoBpAQARpAZ8rArNXkNdnvV9a3KwJ0x1Sq7y7HNquBAOgKARpAK6y+ZVNZNqtgAH0xPdWzQC1UqQG0hAANYCFWYF6XhyvMQO62Zb/tY0sI1AAWRIAGUAuBGSO1LfNAXYbpbQGAGgjQAILK0Lwm+6H5dqElA9OwXY67hB5qABEEaACXzavMWmG+bf6WwIwp25P9QG0mJe4JAAgBGpi8eZXZTPxbEwAh27IfpreoTgPTRoAGJsbpZT4qVJmBRezJvN2jDNNbAmBSCNDABFitGRqY6WUG2qUreWzLfu/0Fit7AONHgAZGah6aN2R/AuCaAEhluxx3Cn3TwGgRoIERITQD2dkWwjQwOgRoYOAIzcBgbAthGhgFAjQwQPPQvFaO40JPMzBEOvFQJyBuCoDBIUADAzJfco7VM4Dx0AmHGqbvZCdEYDgI0EDmytC8IvuB+YQQmoEx25P9lTzO0uIB5I0ADWSIvmZg8rZlv1+aZfGADBGggYzQojEM999//xVjb29vdvsDDzxwxe32se777rmauOGGG2bDtrKy4v3YvNXjDx48ePmxZriPQ3Zo8QAyRIAGeka1OQ92GNahYVjf2rfbYXlsNEjbodp8fNNNN12+fXV1VdCrvXKcEVbxAHpHgAZ6QrU5LRN+d3Z2LodjezStAk+VCdgmUOvbm2+++YqPkcSmUJUGekOABhKi2twtOyTfe++9s4/1fQJyOnYFWwO1VrDN+4TrTuyV4wzL4QFpEaCBBFhJo10mJF+6dGn2lpA8DKZKrUNDtVauCdat2ZP9iYdnaO8AukeABjo0b9M4JVSbF+JWlE1YJiiPix2sdZhgjYVtCu0dQKcI0EDLaNNYjAnLd9999+WgrAPT5YbqtbU1QSN7QnsH0AkCNNCSeXDWrbVp06hBw/L29vassqxvCcuoQ8O0Bmkq1Y3sycNV6T0BsDQCNLCkeX+zhmZW0wgwk/lMWNZBGwbaYNo/NFTfdttt9FRX2xT6pIGlEaCBBdHfHGYC81133TV7q4EZSMVUqG+//XYCddimEKSBhRGggYYIzlcjMCNnpkJNoPbalv0gvS0AaiNAAzURnK+kIVkn/JmWDGAoNEyblg8mJl62Lfs90psCoBIBGqhAcN6nVeY777yTHmaMilajNUSvr6/PArWuTz1xe8LKHUAlAjQQQHB+uMq8tbXFKhmYBLvdY+LV6T0hSANBBGjAMeXgrFVlDc3ay6yhmSozpkyr0XaYnmjv9J4QpIGrEKCBuakGZ9OaYarMhGbAT0P0xsbGVFs99oQgDVxGgMbkTTE426GZCYBAcxMO03vlOMaqHZg6AjQma2rBmdAMdGOiYXpb9oP0ngATRIDG5Mx3DjwvEwjOhGYgrQmG6U1hQxYAGK8yON9QjjuKkbvvvvuK8+fPF+WFvND/bQaD0c9YX18vNjc3i4k4X+wXJ4BJoAKN0St/qOvU+ePlOFGO0U6jN6tnlBdsJgICGdHVO3Sd6aNHj05habzT5ThXVqT5IQQAQ1WG5+PluK8YKa02nz59uigv0IOqzDEYUx0rKyuz79nd3d1ixHbLsSEAgGEpf3ivlWOnGCFaNBiMcQz9Hh55i8duOdYFAJC38of1SjkuFiN08eLF4sSJE1SbGYyRDa1Kb2xsjLkqfb6gPxoA8lPsTxA8VYyMVpvPnj1LtZnBmMgYeVVaJ3GvCACgf8UI+5y1EkVvM4Mx3THiqvRuQX80APSn2O9zvliMiLZpUG1mMBj20J8JFy5cKEZmt6AaDQDpFCNbz9mspKEVJxnYhZ3BYKQb+jNC2ztGVpU+XxCkAaBbxYjaNViCjsFgLDJG2N6xW9DWAQDtK0a0ugZtGgwGo62hQVp/pozEPQXVaABYXjGi1TUIzgwGo6sxstU7TgkAYDHF/iTB3WLgdNOT1dXVwVyIGQzGcIfpkx6B3YJNWACgvmIEkwTpb2YwGH2OEQXp8wVtHQAQV/6gXC8GPEmQ4MxgMHIaI1m5Y7dgkiEAXK0Y+CRBgjODwch5aJDWn1EDD9LnC6rRALCvGPDSdARnBoMxpDGCIL1bUI0GMGXFgKvOBGcGgzHkMYIgfb6gGg1gaoqBVp0JzgwGY0xj4JMNdwuq0QCmoNhfYeNCMUBnz54lODMYjFGOgQfp8wXVaABjVQx0hY0LFy7MLi4ysAsig8FgNB0DDtK7BdVoAGNSDHRdZ3YOZDAYUx0apAe6Rfj5ctwgADBkxQB3E9zZ2SE4MxgMRjk2NjaGONFwtxyrAgBDVAys6qwTBE+cODGoixuDwWCkGAMN0qcEAIaiGNjydKyswWAwGNVDf0bqz8qB2S2YYAggd+UPqqPFgCYKMkGQwWAwmo0BTjTUa9KGAEBuioFNFGSCIIPBYCw3VldXh9bWodcoJhgCyEP5A2m1GMhEQfqcGQwGo90xsP7o3YKWDgB9Kwa0oyAboTAYDEY3Y4BtHScEAFIr9ls2zhcDQLsGg8FgpBkapAdUjT5f0NIBIJVif5WN3SJztGswGAxGP0N/9g4kSO8WtHQA6FoxkJYNXV2Ddg0Gg8HobwyorUOvabR0AOhGMYBVNrTiQbsGg8Fg5DMGNMnwDgGAthT7LRs7ReaYJMhgMBh5jgFtwrJb0NIBYFnlD5K1IvN+552dHarODAaDMYAxkEmGu+VYEwBYRLHf75wtswW3DOwCwmAwGFMfA6lGnxIAqKsYwBJ1ujQdW3AzGAzGcMdAqtH0RQOoVmTe78zSdAwGgzGuMYBq9G5BXzQcBwSYK39ArJZvLpRjRTJ07733yvr6uuzt7QkAYDzKarSUf1mcvc3UXjmOHDhwYEeA0jUCyCw8Hy/f3COZhuczZ87I6uoq4RkARkh/th86dGj2sz5TK+W4p2C9aABG+QPhVJEp7Y8rg/Og/hzJYDAYjMXHAHqjTwkmjwr0hBX7kwW1ZeO0ZOjcuXNyyy23yM4OfzEDgKkw1Wi9BmRKm7Yv6DVUAExLkfFkQXYTZDAYDIaO9fX1nKvRuwWTC4HpKL/hV4tMN0fR5enYTZDBYDAYZmhLx+bmZpGp3YIQDYxf+Y1+tBz3FZlheToGg8FgxIZeIzKl19R1waSwjN2EFPsrbZyVzGi/25EjR+h1BgBEZb7c3ekDBw5ku4wI2sUkwoko9mcNZxeemSgIAKhLCy56zch0guHpghU6gPEoMtyWW1s2NjY2BvFnQwaDwWDkN/QaoteSDJ0XjB4tHCNW7C+xs12OmyUj7CgIAGhDxi0d+mfVwwcOHLhfMEq0cIxUsT8rWHcWzCo865/d1tbWCM8AgKVlvGb0quzvXLgiAIah2F/jebfICKtsMBgMBqPLodeYDFs6dgtC9CjRwjEy5Teq/taruwuuSCZYZQMAkEKmLR175Thy4MABLoIjQgvHiJThea18c1EyCs9bW1ussgEASEILNocPH55dezKyUo6L8wIXgJwU+xukZOX06dOD+dMfg8FgMMY19BqUoaMCIA/lN+TxIiPag7a+vj6YH7IMBoPBGOfQa1GGfdEnBINHD/TAFfuLtp+WTJg/n7HKBgAgB5n2RbNr4cDRAz1guYXn7e3tWb8z4RkAkAuze2FmfdHsWgj0Qb/xiozQ78xgMBiM3EeGfdGnBEAaRWbhmfWdGQwGgzGUodeszJwSAN0qMgrPu7u7xerq6mB+aDIYDAaDoUOvXXoNy8gpwaAwiXBAiox6npksCAAYsgwnFzKxcECYRDgQOYVnJgsCAIYuw8mFTCwE2lRk1LZx9uzZrP8sx2AwGAxG05HZ5MJTAmA5RUbhmZU2GAwGgzHWQYgGRqLIKDxvbGwM5ocgg8FgMBiLjMxW6DglyBaTCDNVZNLzfP/9988mC+7s7AgAAGO3uro6m1x4ww03SAaYWJgpAnSGcgnPrLQBAJiizFboIERniACdGcIzAAD9I0QjhmXsMpJLeL733ntZpg4AMGmmkJRJCyNL3GWGAJ2JXMKzroe5trY2630GAGDKTIjOZK1oQjRgK78hjhcZ2NzczGo2NIPBYDAYuQy9RmbiqABTp98IRQZY45nBYDAYjPjIaK3oowJMVfkNsFpkgPDMYDAYDEa9kVGIXhNgaor98Hxf0TPCM4PBYDAYzUYmIVozxKoAU1F+wa+UY7foGeGZwWAwGIzFRiYherccKwKMXUF4ZjAYDAZjFIMQPV1spJJQ+QWu+4LeU44V6dGxY8dkc3NTAADAcjY2NuT8+fPSs71y3HLgwAHWoE2EdaDT2hbCMwAAo6HXVL229mylHBcFyRCgEymrz/rr6c3SI8IzAADtyyREr86zBjAO5Rf0qaJn5Z+Ysu4jYzAYDAZj6EOvtRk4JcDQFYRnBoPBYDAmMzIJ0ScEGKryC3i96BnhmcFgMBiMtCOTEH1U0BlW4ehIsb+kjK64cYP0hJ5nAAD6kcHqHLoix+EDBw7sCFrHJMIOzMPzRekxPJ85c4bwDABAT/QarNfiHmkGuVCwRjSGoPxCvaHoeaMUNklhMBgMBiOPkcFmK/cU+/tQAPkqv0gvFD0iPDMYDAaDkdfIIERfECBXRc8rbhCeGQwGg8HIc2QQok8JkJvyC/N40SPCM4PBYDAYeY8MQjTL27WEVThaUH5Brsr+ihu9uPPOO2ezfQEAQN50cuHRo0elR7ewMsfyCNBLKh5ecWNFerC1tSVHjhwRAAAwDBcuXJD19XXpyZ7sL2+3J1gYAXpJZYDelZ7C87333itra2ty//33CwAAGIYbbrhBLl68KKurq9ITrUBriCZALIh1oJdQhuc7pKfwvLe3N/vtlfAMAMCw6LX78OHDs2t5TzS53yFYGAF6QcX+bNZemvH1G67nbzwAALCEDEL0BpMKF0cLxwLKL7g12e97Tk6/4W655RbCMwAAI7CysiL33HPPrK2jJ9rKsS1ohADdUN+TBjU87+wweRYAgLHQXmgN0T3ZEyYVNkYLR3O9heeTJ08SngEAGBm9th87dkx6slIOdipsiADdQJ+TBs+cOSNnz54VAAAwPro+tF7re7I6zzhAu4oedxosg3N2uykxGAwGg8Fof+g1v0dMKqyJHugaiv2+Z21OSt7hz0YpAABMi64Rrfs89EDXxr2FfuhqBOgKZXjW0KzheUUS05U2dNIgaz0DADAduiKHTirUFTp6sCf7IZrwEUEPdDVtPF6RxMxaz4RnAACmpec1oleETVYqUYGOKKvPx2U/QCfHcnUAAExbz8vbnSyr0KxeEEAFOmDe99zLFw7L1QEAAM0Cmgl6cqrMQqsC1KV9z+XYLXpw+vTpQc0WZjAYDAaD0e3QbNCT3WJ/LhgctHB4FPtrISZfyoUVNwAAgE+PK3OcPXDgQG9l8FwRoB1leN4o35yXxFhxAwAAhPS8MsdGGaLvFFxGgLYUPa33rKFZw3NPs20BAMAAaHjWEK1hOjHWh3YwifBKF6WHzVKOHTtGeAYAAFGaFTQz9ECzUfK/zueMAD1XVp9PSQ/rPeu+99r7DAAAUEUzg2aHHqzN54hBaOGYKfaXaUm+0CKTBgEAwCIuXLgg6+vr0oPDBw4c2JaJm3yALnraqtvsNEjrBgAAaKrHSYV7wlbftHBID1t197xFJwAAGDjNEvpX7B5W71opxymZuEkH6PmSdUclMe1dIjwDAIBl6E6FPfVDnygzVC/9I7mYbAvHfMk6XXVjRRI6d+6cnDiRfI8WAAAwUmfPnpXjx49LYlr6PjTVVo4pB+hNSVx91qrzoUOHBAAAoC3aD607Fa6urkpiW2WAnuRqCJNs4eijdcP0PQMAALSpx37o9TJTTfLP6pML0PPWjeTN7ydPnqTvGQAAdEIzhmaNHpyaZ6tJmWIF+rT00Pe8ubkpAAAAXdGsoZkjsUnuUjipHuh560bSf2T9jfCWW27p488qAABgYnpcH/rkgQMHzspETCZA97Xqhk4apHUDAACkopMJdVKhhumEtFKoG6zsyQRMqYXjtCQOz/Q9AwCA1HpaH3pSrRyTqED30bqhfUjHjh0TAACAPmgVem1tTRI7Ulaht2TkRh+g+2jd0KozW3UDAIA+9dQPPYkNVqbQwnFaaN0AAAATowsY9PDXcG3lSL5ccGqjDtDzfdqTbpiiy8dsbY3+LxcAAGAAtre3+1ja7kSZwdZkxEbdwlH+4+1K4tYNtuoGAAA56amVY0/2V+UYZSvHaCvQZXjWPx+sSEJs1Q0AAHJjtvpObKUco93me5QBej5x8LQkpMvF0PcMAABy1NPSdqPd5nuULRzlP9Y95ZtVSYTWDQAAMATayqEbrSS0feDAgdH9iX50Fej5ms9JvzJo3QAAAEOgrRza0pHQWpnNRtfKMaoAPf8zQdKlU2jdAAAAQ6GZpadWjqT7indtVC0c5T/OpiRcto7WDQAAMEQ97FJ49sCBAydlJEYToOfV511JSMMz1WcAADA0uqSd9kPrEncJHS5D9LaMwJhaOC5KQrRuAACAodIM08MGK6PZoXAUFej5xMHzkgitGwAAYAx6WJXjZFmFPisDN/gAPW/d0OrziiRC6wYAABgD7YPWfuiEdAmQQ0PfoXAMLRzHJWF4pnUDAACMxfb2dupWDm26HvyydoOuQKeeOKjB+ZZbbkm9fiIAAEBndCKhtnLoxMKEtAq9JwM19Ar0aUlIq8+EZwAAMCaabY4dOyaJJZu71oXBBuiy+rwuCdd83tzcnA0AAICx0VaOra0tSUh3KFyTgRpsC0f5SdfWjRVJQFs3dLtuep8BAMBYaSvH7u5uyrWhdw4cOHCLDNAgK9DzZetWJBFtric8AwCAMdNWjsTbfK+WmW6QEwoHV4Ge76V+jySsPrPmMwAAmIrE23wPclm7IVagky5bp60bAAAAU5G4Cj3IZe0GFaDny9adlkR00iCtGwAAYEp6WBv6+LzDYDAG1cJRfnI3JdHKG0wcBAAAU9XDhMKzBw4cOCkDMZgK9Lz6nGzZOnYcBAAAU9XDhMIT86w3CIOpQKeuPjNxEAAATF3iCYXbZRV6EJPPBhGgU2/Zrdt17+zsCAAAwJRpeNYQndDhMkRvS+aG0sKRbLtHnThIeAYAAOhlh8JTMgDZV6Dn2zwm+9VHWzfofQYAANi3srIi99xzT8oJhdlXoYdQgU5WfWbiIAAAwJU0GyVe1i77KnTWFej5lt1JArR+cWjvs846BQAAwMN6WNYu6yp07hXoZL+BaPWZ8AwAAHC1Hpa1y7oKnW0FOnX1mWXrAAAA4rQXenV1VRLJtgqdcwU6afUZAAAAcSdPJt0sMNsqdJYV6JTVZ12eRbfsBgAAQLXEm6tkWYXONUDrpikrkgDL1gEAANSXeHOVLHcnzK6FY159XpEEdNMUwjMAAEB9iTdXWZvvCZKV7CrQVJ8BAADyppur6LJ2iWRXhc6qAk31GQAAIH+JN1fJrgqdVQW6/ORoQ82aJED1GQAAYHGJN1fJqgqdTQV6/pvFmiRA9RkAAGA5urnKVKvQ2VSgU1WfNTjrsnUEaAAAgOVMtQqdRQW6DM8rkqj6fOeddxKeAQAAWjDVKnQWFejyk7FZvjkqHaP6DAAA0K4pVqF7r0DPq8+dh2dF9RkAAKBdPVShV6RnvVegqT4DAAAMW+Iq9LmyCn1CetRrBZrqMwAAwPAlrkIfLTNkkqQe0ncLR5LwrMFZl64DAABAN86ePTsL0gloeJ5uBbq0IQnonu1UnwEAALqTuAp9vM8qdG890PNtu89LAuw6CAAA0L3EvdAnDxw4cFZ60GcF+pQkwK6DAAAAaSSuQt8uPemlAj1fBPuiJED1GX0qv9alb+Y1lL+lS5f0efR77dZbb03VAwck9dBDD111m/19ZX+/6+3u957788A+xnecud9+G7q/zvmvuSaLvdMwAVp9vu+++ySRw+XX+rYk1td304YkQPUZU+VelNsIz1W/DOhz6C+sFy5cEGCM9HvAHRqqzbCP0Y99x7uPNd9X9rnc5zK3xe53bzfH2x8DqWgRRVc/SyRJR4MreQV6vnTdriRA9Rl9m+qF6/Tp03LmzBkBxuSrX/3q5ffd6u4yQueqU912P469rkc+8pECpLK2tiYXLyZpNlCHyq/9PUmojwr0aUmA6jPQHw3Q+sMTGBNf9dhXCa6qPIcq0e5j7eq2W6kOvZbY8wMp6QpoOhLZkMT6qEBr9XlFOqa7Dib8hwO87Iue26+Yq7Zeo/4J75ZbbuEXWYzGl7/85atuC/Uwh6rE5hh9q2HXrTLH+p6bfF/6jr/22msFSClhFVon3mgVOtkEnKQV6PnSdSvSscS/9QCV7IvmMlJUkdoK+DqJRPuhEy1lBHTOrga7/cW+nmbzNlapblK1dp/bPUeoWm33SAMpJcxjeqHZkIRSt3AkafRO2LgOVGoz9MbCrf08ufy5dnV1VU6d6mV+B9C6WKA197tBNtRa4ftYucHcF9Tdt74g73sNQB8SzodJuqRdsr8lF4mWrtM/F+vkQSAHoYtWH60cqZ7T9zwnTpxIuS4o0InPf/7z0qQdKzShL/bY2ATBptzHXnfddQL0QZe0S/TXyGRL2qWsQG9IAsz8R07cC589Uz61FEvZhZ5HJxVqNRoYMl812FdNNuPBBx/0Vp3tx8Yes+ikxNDrAvqSsICyLokkuYoXiZau0+qzTh5k0hJy0fSi1bRK3GdVuSn9vtRJhWyygqH63Oc+d/n90PeE+0uy+zMgVr22H1vnl237PLH3zXmuv/56AfqQcHvvZJMJU1Wg1yQBbVQnPGMIQsG6aUjtKjz7LvrLWllZYZMVDJrb8+z2Gvt6oc3HvnO4VWJzbKjP2r3dPp/9vPZ53NuBPiTc3jvZZMJUFegkS9excQpy0+efTWNV464r17Hzs8kKhuqBBx5otUe5Dt/5F33OgwcPCtAXLaJoFTqB7fJ75LB0rPMK9Hzy4Ip07K677iI8A5ZYQG4zPPsu5LHzs8kKhipUCW7aixwa5jmqHrtoXzTQJ81oiZa0W5tnz06laOHYkATOnj0rQG5yumh19VoWCePayqHVCGBIfC0bocDsrsns7hboO5c7gbAqsIfe9z0HLRzIQcK/PnY+mbDTFo7ym1h7UbRe32nXOEvXIVdVobXPVoq+n2dnZ2c26ZdJhRiKT3/608G/uMTaOmItF6GdCH331Tmfe789afEJT3iCAH3TNo4EBZTOJxN2XYHW3wA6n3JJPyWGxL0Q+m6v+/gqqZbLW+R52GQFQxOqBjfZNCVWKfYd61aP67Rw+CrfVKCRi0Sb3XU+mbDrCvRFSbACB5MHkasx9h0uU9X2PfbkyZO0YGEQPvGJT3hv931dx75PfBVm32MX+V5zH2N//KQnPUmAviVc0q7TyYSdVaCL/bWf16Rjm5ubhGcMhrlw9h2sl3n+putUVz1Wq9BssoIhqFNp9i0r59ta29zvG+a+2DFVj/V9DORA2/YSVaHX5lm0E122cJyQBBL9IwCtMAEy1a6AVa+ja3WeR6sQOqkw0TavwMJ8bRXuesyhMG0e72u3CLVxVE0MrHMMLRzI0dbWliSyIR3p7CpaJFj7mcmDyJ25aC3659g6qv5UnOskQpf+QD1y5IgAufrYxz42e9tkEl9MnePcnx1u+4dvcqF5635fPu1pTxMgFxcvXkyxpOn95ffAjdKBTirQRaK1n5k8iNzpxStWdW7jz6pN13vu4k+5bYT09fV1JhUia77WjWXWabYr2bFj3Iq272Nf5do9L5AT3b8jgRuKjtaE7qQ0Vb7YzfLNUekYkweROy5azenSdokW2wca+ehHP3rFx1V/ebGrwSo0uS/22NB911xzjbf6HPOMZzxDgFwknEx4rvz+aL2tuKse6NulY0weBMaJTVaQK7c6rEKVYHfCoH1srG+6biXbrUzXeSyQE51MmKgKfbTY35ekVa0H6PJFbkiCtZ+ZPIgx6+pil+oiGnse9z73YzOpEMhNqJ0idJuvrcIO3r6AG2rBCD2fUVS0iRCgkSMthiagmXRNWtZFBbrz7RMT7qcOdKLOxKEu1J3c1ObzuM/n/r/5/l91Wbs77rhDgJy4QTYUmM2xdSrLoVUz3Pt8zx+qRIdW6AByo1ku0W60x6VlrQboYn+9vc7bN6g+Y+hSLSMXeu5UIdp+29SJEyfk+PHWf+YBC3OrwnWqzW2NUIW7yfMBOTp37pwksNp2G0erV/F5+8Z56RiTBzEUy1y09LFdLXunugrx5nU3fR7f/69WJnRS4c7OjgB90wlPTbnfB21/X4d+IfbdzrKvyJG27d13332SwMny+6K1bW/bbuHofOUNLfcTnjEFXbZxdFkBtyvPTZ7HdyybrCAnVZXnWNXX/niR6rHvvLHHM4kQQ6GFkkRtua12SLQWoItEW3fTvgGMm3uh1xU5zp/v/A9bQCVfS0Wd1S8WOWbR26tCN5CjRKtxrLXZxtFmBXpNEki4/SPQCi5cYaE/Pbt0kxX6odE3N7jaYhMA3eBrzhUbvk1Wqrbv9h3HKhwYAl2NI9Fkwg1pSZsBuvP2jYSfYKA1qXYD7EqXr7VJi8fZs2dTbPsKBLnrNzetQoceZ583FMTdAO4+VtnB3q0828cBuUm4JnRrbRytBOhU7RuJPrlA59rqQU4RxFOt2lGHtnKwyQr6smjrRJ3hW3IudL95/8EHH5wd51sKz3c8kLNEa0KvtdXG0VYFek06phMHad/AGLR5IavaCtj3fuy2RZ5n0XMuQsMzm6ygL22E59hydLFA7Rv2a1Lu481tBGgMQcI1oTekBW0F6CSrbwBjkKqlw34e33N2sRKHe077Qt8WNllBX3wBt87az74+5KZhuercWo2uCtdA7hItFNFKG8fSAXpeCl+TjrH6BoYuFib73FhlGVUX5TaXzLOfSzdZOXq089/bgSu41VxfeA61T7j3ubsMuve5jwlVrn2vz32OLn6RBbqQqNNgrWihjWPpK1uRYPMUbd9gAXgM0bIXLX18kwDa9PhFpXqeGP1T3y233MK68Ejmgx/8YPR+M1/A/t6o+zPAnWsQm3vgnj/0WPf2F7zgBQLkTjdVSbD2/7Hy+2NTltBGC8e6dIz2DYxdW5XpLncX7Op5Fv0lQ3/AXrx4kU1WkEyddgq3auyrGLvv+yrF7se+tg33+ezz2ecwtwNDkKjjYOk/YbYRoG+TjtG+gTFyK0Ypn6+pFDsX1mX/f7DJClJy2yt8wxznC9a+kO0LzLE2kNjzVrWOAEOQqI1jddk2jqUCdPnkWn3utPyjf56lAo0xajuU1ulHTvE8dYP6ooHe/f9gkxWk4lvZoios1+lx9j3ePE/dUTWJERiKRKtxaHZdlSUsW4GmfQOoqes/oS5TyW3zeequMhI6zyKvi01WkIrbIlE1ac8Xbs3tvqq026IRus8XuGNtI4RoDEmizoOlMuyyAZr2DaCmppMBl1Hn8b4l57qSokWFTVbQtdiKGKGVM3zVYF8lOlZNjq3O4QvVuqSd77UCQ5GojWOpPuiFA3T5zail7xXpEO0bmCoTOH0XvUXCcYw5Xy5L6S36OuiHRtdi7RWhPmdfwA091j1/VVAPDd/rI0BjSFK1cZTfF2uyoGUq0LRvAC0JXdxSbIAy1DWofbSNg01W0JVQ+I2tgGG3TlRVlc3jfBMMm1a9Q+cHhiJRB8KaLGiZAE37BtCSHJaF68qyryf2eN99bLKCrvhaJ9yQ66sE+3qb7XDtqyzbz+l+nfv6oO1jQ9VqYEgStXEsnGUXumqX34gr5Ztd6ZCW7m+88UYBhiyXi5a+jtDmC0OoQDd9nWyygi787u/+rrQttGFKrI2rzuN9vuVbvkWAodA1/nd3d1Os9X9j+X3UuF9k0Qr0mnTs7rvvFmDocgnQbvg0H3cZntv8f2/6OtlkBV2o6j32tXbUOW6Rx5vX06QnGhgSLYQkyoILtSRnG6ATle6BTtVZ0m2RC5vvMWO9QC76/6WTCumHRptiITe04kXh6XmOTThcNFyHeqDt94GhybmNY9EA3Xn/MxMIMVahavCi5zAXxtyqyW29nth5ql7XxsbGrCcaaEMs0BpVYdZ3rtBkQPt87nP5+rBDx7vPDQxFogCdpgJdJFi+TsMzvYtAPSl6mHPtk67zurQKzSYraEMo4IaqwnbgrQrWbhgOVbh9VWv3vG77BhVoDJW2cSQoqC60nN0iFeg16dhdd90lABbTR7Up94szm6ygDbFwHBu+YOw7znCPbzJCK4PYVXJgSBL1QTfe1nuRAH27dIz2DeBqdUOqVmVTVYxTtI+Y53H//5uEdjZZQRtC/cV1JvLFwq3vXKFe6aqhQscDQ5SojaNxts2uAq2tGzs7OwJMSZ0LXI5tFKlek++XgqbPzSYraEMoFIcCcKgFwz5fbH1oXxtInZAeq3ADQ6KZMMGuhKvl90ijZZsaBehiiS0P66L6jClqq2rMRTKOTVawjKIIr6bhhlj3MeZ9t0rsTvLzheeqoFy3JxoYqgQb62l4btTG0bQC3fn23fQ/A4vLqUrd9gW7rfOdPXuWfmgsxA2ioQqvG46Vu3qGG6ZDlWb3nPY5fL3SLvd1AEOUqLjaKOM2DdA3S8eoQAPdG/PFtOr/jU1WsChf9Vn5WjjcqrKvEu2rMNsrfLjP5z429FrcqjYVaAxdomzYKOPWDtDz3pA16ZB+ghL0uQCTt2ilOuVFeNHnqvP/xiYrWJSvnaJuq0WsvSIWumMBPXTeUF81MESJlrNbKxr0QTepQDde4qMptu/G1LUZULsIu02C97LtJG1sOBOjm6wcP35cgLpCEwJDQbjO8D2+6TlV3eOAocptObsmAbrz/mfaNzB1GhLbutBVBc62nieHC/Oir0H7oVdXO68NYCTsSm4s9DYJ2Pa5YseGKtJNAjcwZLn1QTcJ0J32PycqzwPZS7k0XJU6F90cJi4u8xouXLjApELUYrdXmLehUOsGXLf9wtfaUURaM9zw7r5f9VoI0Bi6RG2+tbNurQBdJOh/Zu1noB1tXihDwXRMF2M2WUFdDz74YGXVVxUVLRtuAI9Vmn3nqzrGnXRofwwMWYKsuFbU7IOuW4Hu/G+cLF8HtCNFRTj1ToddY5MV1BULs7FJfu5jff3UTe7zVahj1Wsq0BiDRFmxVuatG6DXpGO0bwD5MX8u8118Qxfk2IXavZBXXdTdnvAuQ4BusrK+3vlUDwxYqAJcFVxjxy46Fpl8CAxdom6FtToH1Q3Qt0mH9CJNCwfQDnOhbOOCee7cudn3pq/iHKpCx6rT7o6LdSrZTY9fhrZy0A+NEDuIupMJzfu+NZlDVeJFgrj7fEWgCu57HDB0ifqga2XeLFo4CM9AfXWqtvbbZR05ckT29vYmcQFmkxXE2OHU/thXAfb1HfvuWyRQu89jzuN7ve5xwNAlyIzttHCU33h6ok6vJvQ/Aw+LBVW9L+WqF/p8Gp6PHTvW2qodyz7ePqaLUM8mKwiJtVPYlWf7+Ic8G5qEAre+1YmKbjB2z++GYt9zuI+nAo2xSJAZb5hn36g6Feg16RgVaOBhVS0QfdA/m505c6byuLY2T4ld7Jdp6agbIthkBT5uC0fdKrEvMIduM89jnsN+Xjc0u5Vl99wmjBe0cGBEcumDziJAM4EQyJMdUE+fPi1bW1tX3O+7KC96obYf19UvCu55Y6+VTVbgilWUQxMHfS0XVeew77NDcKiK7as+u0GfFg6MRS7rQdcJ0DdJhwjPwOK6riq559dWDm3pMEKTCxepePVRXa96Tt1khX5oGKEe5VigdY9RbrU5Vsm2n9d+vyp4+14DMBYp1oOuOiAaoIv9xaQ7LcEk2tscGKWuQ6d7fv2tXycVVv3276620VTfF3vz/NoPrSEaULFQrNwQ7N7m600OtYKEAnXscb7XEOrPBobs3nvvlY6tFBUbqlRVoDv/+yUVaOBq7kU5J/qbf51+aBV77XX7nJc91yLs59dNVk6dOiWAqhNuQ7f5Ktb2bb7zu33MdUJz7FhgDBJlx7XYnVUBek06xgRCjNmiF62Uax/HhF6/9gfrqNLmhMhFz9VG8Nb+bzZZQSwwu+FZ1a0uh1oyQlVs+62vRzr0MTAWiQL0SuzOXivQGp4TNIIDvekz/HZNq9Bt/QLsu7i3dcFvErxjz8kmK7BbMMzHbuA1X0NuRdnXghGaYFgVqmOV51DVmwCNMdHsaM/H6cha7M6qAF05C3EZVJ8xFX1cvELP2eS1xMJn3X7oJs9jv7ZFf/lY5nMde06dTMikwmkLVXbdQGtXoKuONe/7qsW+t3XDsh3k6YHGGCWYQ3db7M5ggC72m6dXpEMJmsCBLOS0woR9+7IXVa0AaIhuSxufpy4/17qsHf3Q0xVrj/BVoH2h1j1W3zdtGPZzuFXqOpVqXx+2G+qBsUhQhNUNVVZCd8Yq0EwgBBLqo0JUFTbrvKa6m6wsK5cK2okTJ2YD01O3AhxbLSNUkfaF5FhlepEBjEmiDBnMwrEAvSYdo4UDeFiO/dJ1X5NOsmv7h5l70a9amSMWENoOD7rVN5usTE+sXSIWWn2BuCoYK99kxDrPH2sdAcYi0Ty6ldAdvVWgqT4Dy8ntgqitHO6kjmVCbZ21pPtcrYR+6OmJ9Tb7JgiG2ih8wdoXgkMf+57DbSEx5ydAY8z6nEgYC9A3SYfofwaasy+GywbGOhfUJhddM6nQ1uYydnWEXm+TZe7q/j+zycr0uCHYF3rd+1Qs/NrHh/qd7ed2JwSGKtih5wLGJMFEwuBiGt4AXSTYgZD2DaA5U5XNdbKdfl+fPHlSlmGHgaYW+X9yH9PkHGyyMi1uNViFepfN8aF2CjfghirO5jns53cr3r4KuO/5gLFJkCVXisCOhKEKdOfNfQRoTE1OFzA3pIaqsIsEUt1gZXNzUxZlnrPJc7cdEJqcS/u/NUhj/IpAm0XsvtD9VcN9jC8UV7V5FJ7qODAmibKkNxMToIFEuuzRbRoe3ZC6TBXWR6vQVb1pbQVe087S5ue36bm0lYNNVsbPVz1uGoybjtBkwKpjqEBjChJNJGwUoFekQ4RnYF9bF7Wuwvmir09/oB0+fDj6g62N17zM56/NQMEmK9PgVp3d2+qE30WCb9XjzOsgQGOKEkwkXPHdGArQ7EAIJJBy5YhFLqDLvD79oXbs2DFpQ+i1u5Xn2P+je1/bn/ubb76ZfuiRc3uRTRXa3ObrQ46tllE0aMMItXBUHW+/BcYowaIUt/lu7KWFgxU4gO7EwmbVMXXvr2tra2vWE72sumG3rVU/Fv1lg01Wxi0Wet2gGqsa28E7dGwodLvB2He8XZVWhGeMWYqJhL4brwrQxf5sw07/DkkFGtjXxZ9V6wTFJusrL0v7oae07rtWodlkZZxCAdbc54Zc93Z36BbeoZU4zGPdc6iqVTZ85yREY6z62tLbV4FmAiHQMXOxy2H3wS5CvEtbOWJ9aqHX0OS1tVlVr/PvEjof/dDjVScIh6rO9uNj1ee6lebQY2L3A2PU10ocyQO0TipKMGMSyFoooPVxkUsR4qv6oUOvoclr66qqXqclxj5O37LJyjj5grEbTuuEW6WhOxSaFxl1JjICY6SZso+JhNfUOahNVJ8xNb4LVyyULXqh6+IC2eY5tY1j2U1W+tC0/9q8ZZOV8alb7Y1NGrQr0L4QXlVhbhKozfOwEyHGLsHcuhX3Bl+A7nQFDiYQYmp8AayLLa67qCS3fc5FNlmJXfjNfaFj3Nub/DJTV+zxbLIyLm4QdcNyKAj7Jvm5fcqxFpCHApMIfRMMY+cAxipBBfqqbJy8hSPB/yQwOV1Vl7o4r7vJStVz1Pllo24LSNNfZuqoejybrIxHKLi6AXaZVoxQ9dgXos1w20HsCrf92oGx6mMljisCdMEKHEAybV7Quupj7uK87iYryzxHm5/DOtXquo+1MalwPEJhNxRsq0JyG8eYr72qSjUBGmOWIkDPM/JlbgWaFTiARPpYgSOXipRWoNvohw5N5GvjXLF/H/d5qv4tdVk7+qGHzxdOfVXfOsHXdz7fY6sCemilD98xwFgl6m5YsT9wA3SnJRJW4ACWq3Quyw56dTZW6fK1aS90G5usuFJ8PpuEa3Mbm6wMny8w27e7rRe+oB1a+zlUPXafz7e2c6iX2g3cwFglypdXFJmTVqCpPgPNKp111K0qx+7raz1qrUK39XNB//9yWFc71mfNJivD5gu1vgqwG5jdcF1Vna4bqO3zhx5vHweMWeql7K6J3dk2JhACD2urIhSqKseOW+TcXTly5MhSlQO3upZDiA6hH3rYFmmxULEJh/ZtdtiuE6yb3AeMXYJV3m6yP7gmdmfbLl26JMDUhC5edVoo+pbidekv1hqimzyfG5jNaKqPz7uuyHH+/HnB8PgCsf2xr4XCrQT7grOv1SJ0v3ufef5QDzbL2GEqEnQ5RFs4VqRDtHBgiuoEu7Z2ybM/biMcpqrm6iYrZ86cabxpiVrm/7OvavXtt9/OpMIB8rVvuMvNxarBvhaOUHuGG7RD4TzUUkL/M6YmQQ90dBWOFekQLRxA2CIXuVg/dc6tDD666YgG6TGJ/fWBTVaGx9cWUdU6UbfNIhTEq54v9Lrsc7EKB6Yg9VJ2lwN0eWPnM1sI0EBYW4F3yBdKbeVo+nOi6VJ2KT8/bLIyLm54DU3giw1zHrcirew2C1/gDlW13Y9DbSLAmCXKmFcHaGEJO6AXbQe6oVWebfozYtlJhVX//6k/P7F/XzOpEMNQVTGuE2btj5W9rJ25f5FgHqtIE6AxBamXsrMD9Ip0iP5nTJEdnnxBSm9rI9BVPc+Q6M8K7YdeRk6fgzqbrNxxxx2C/PnWX1Z1Am0oXLvfu3Y1uqra7N4eqjwTnjEVCarQ3gr0inTogQceEGBqqnqS26qGDrn32Uc3WGmyyYodPFTV56CLgL3MOXWDlePHjwvyFgqzocl9KnRcLABXPcY3WdAN87RwYIoSLGW3Yt6hAg0gS1qFrvtzo+kydl38ktH0nG7g1kmFbLKStzpBNRayY5XqWLBWvtU1fCHZ99b9BRMYqwQtHDeZd67x3dgF+p8BPy5sfm30QzeR+t/BDdxsspK/qrBbZwWNOsF5kWPqDGDsUu5GmGwSIRVowK+PlouhXEztTVZi3P+fRf7/mvw7tPn5s8/FJit5c9ssfMvENQnV7mOWCcp1HguMXV8ButO/HVKBBq7U5wWtbljM4aJrNlmJia2H3YU65/d97ny3uedaX1+nHzpTvj5i+zZf64V9eyjw2j3TiwboOo8Fxi75JMLCWhi6K6wBjakKXbja3nravWAvco4mx6S0yCYrff8/NJ00ar9enUDJJit5civP5jY3OLvhOHaMeT/U01wU1X3SdSYrAmOXIkCbzGwq0CvSMSrQmKo2V4TQc9UJ5LHnbLK1eE4retTZZMX+3AxtNRL39WorB5us5MX++nKXsvMtJeeGZd9qG271+aHIShyh5zHP4X4cqogDY5VoLegrAjT9z0BPmga9MSxTtwgzqdDmhoJFPzehcNE0dLR5vIZnNlnJS6iaXHcFjdiIVabd8/iCc6gSbb8PTEGqzVSSVKCpPgNxbVeHqs5X9/lyq1rpL+MnT568/HEX62hX3R77nLT9yxCbrOSlTgCu+37dx8ZCeiy8h8I2MHap+qCTBGg2UQGu1mW7QVvbWedY7db+4M3NzatubyMg1DlHk5Ycu4q4KJ1QePToUUH/Yj3J9v0qVAEOBWLfx3Uq3b5hnt+8JUBjSi5duiQdS9fCwQRC4GpDaMXI9aKrVWj350obn89Yj3mTc7jvL/Pa9LH6SwP90P1zw665zTdpzw7Mdo+z/dZ+nPnai63g4XsNsSr0gw8+SIDG5CToeljR/yQJ0LRwANUWucB1fVHMNeTrz5TDhw/P3sY+B75qcJUu/p+X/Xc6ePCgXLx4kU1WeuYLxiakhib3hSrK7jF6Hl/F2X0+t+Ltm5hYBFo9gClIULQ9qP8xAfom6RAVaExdVYAyFaim3McsEhiHSn+uaCW67oojbQTjRT+nyz63Pp5NVvoX6iv2tUuEQnVswmHoNl9ftO81VIV1YApGVYEmQGPqFulJrnPBc49pOzDmTnuhz507d9XtbYQF3zn63oCGTVb656vuVoVm87jQShm+89bpd16kNxoYu1EtY0cLB9Bck/Wa1VQvkCdOnLhqk5U2NqlZZkm8uhumLIJNVvrjqwq7FWHfcaHJhLEKdeiYUAj3PZ4KNKZoVKtwEKCBaste4Ka6PrQ6duzY0j803QmEbbRrLFPFDj1esclKP0JhNRSWqyrHdavXbpU69hzmeDusm8cCU5C6haNTtHAA1foOwL4L7FAuuvozRkN0lar/nzZaYOznaKP32Yd+6H5UheC6rRRNRlWbRlUl2q5cA1OQKnNeU36DrQiAyfOFtSFVtbWNw95kRRVO72eK/59UnzNt42CTlbTcSq+v+rtMSO56AFPRdRVas7NWoJlACCTgu4AtelGLPc6+b9mL5tAuutofvLW1dfnjMba12P8m2v/NJivpuFXeJuG3qu2i6WNDj4m9NmAqUrQOdx6g6X8G9lVVeJtc4GIbfrS5EscQA6jbD932RMu+g4j7b8ImK+m4PcWxVgu7dcLXwxyaDFg3SIeOtZ/HfZ3AVKTog+68B5oADdTTNKxWBcMxhMVF2JusuJp+jn3//7G1t/ugm6uwyUoavqCsfJMJzfHmrfsY+3GhyYe+8F23Qu0L28BUpFjKTgP0inTogQceEABXavtiFqpuL/s8Q22BMJusNOV+vmK/pJiPc/gcaQWafujuharMsdBa9ZhQaK5azi70fux+YCouXbokHbuh8xaO++67TwBcKdX6zaFwV/c5h1y10k1WtL2hibq7GlYd28XnreqcGxsbs55odCdWBQ4N93FVq2pUVZfN+eyAXfc1AGhP5wGaCjRwNfti1nWYrtOGEDL0SXhahd7Z2ZHUuvi81amGaxWaTVa6FQu/sVaKWMuHfax5jrqBuk7fNC0cmBp6oIGRCgWsRdsu7MfE2hCm6MiRI8l/DnUVVkJtI/bHbLLSnaKITxaMfVz3/QcffLDWOUMhOlbhBqYi1SocKwIgiToXsUUCr7vyRixQV1nmsTnSfmgN0Sl19UtLnfOyyUp33H5iO6Qq+23danGsguw+hy8s+wJzKOQDU5EgQN/UeQWadaCBh3UVrGJV52VW9xhL9Vo3WTlz5owsYoi/RLDJSjdCwTZWHXYDcei+UPtFk/uq2jmAqRjFOtAAupdqUuKQnT59ehakq8R+GWnyua06tut/JzZZaZ/bSuGrRjepEIcqxrHAHArO9usLPR5AezRAH5QOUYEG/EIBatlgNfWe5xht5aj6mdRkJY5FzmP+fZuca9GvCTZZaV8oBPvuM7f5Aq6vHcS8jYVn+5zuxET3NVJ9xlSNYhIhAL/YREJ0Q3+o9jGp0LZsj3sTbLLSrlCFN1SZdkO0L2zbt4UmDbrH2EHaDdjusG8HpiJVCweAHtgX0hxeR9P7hkqXtVu0H3qI2GSlPaFKc6ztoqqiHDuuqGj98FWw3ZDuBncA7aAHGkjM/RO+vWpGmxe5uudqq2VhSLS14dy5c9Fjhh447NevvdBssrK8WFiODfuxVaHbV6G2Pzbc9o1Q8PY9Fhi7VC0cnQZoeqCBK4W23TZv27rQLRN+p3Cx1UmFsU1WuvzlIcXn111NhU1Wllcn7FZVkZse76tCh8JzVZAGpoIWDmBi9ELXR/B1HzeFPmy3Hzr2uavzefUdE3pcX59fNllZji/s6sYnvnDbJCC7t9c9Ryxo+44H0B4CNNCjtoProo+f6sRF/QvZsWPHZu/Hlqur8/mJ/WUhF2yyspyqKrA5JlQxtoOsb0UO+1z2Y33B2j7WnVgYqkoDaA8BGuhR7sF1Chfdra2t2aRC+/+1rX8XO1S1ZZlz6WPZZGVxvoqvLxBXVYhDgTpUTTb3h57HfX3Kvo8ADbSv8628+1wuCujbohetXC52U6lMaz/03XffLW2ze9vbPmddvl8MdELh+vq6oJlQm0Rowp6vWhxqr/CF5ljI9oV1+zX6lrYDpiJB9ryh8wo0ARpTlrqlwg5LVJya0VaOtic9h/4N2vq3qXMe39eSPo5+6OZCAdgXat3e6NixdUJ1nf7oqh5sYCpGEaABXK2ri5m78kJVoI69jqldcDU866TCNrW1WU7o32KZX9DYZKU5t+prQnIs3NoV4FhPc1UYrgrcoedyq9gA2kGABnrQVWuEG7TcQN3kdUxxYqEua3fy5MnoMX38YtHVvwWbrDTjtksoX4U41NdcN/TW7Z32HWtep/0+S9kB7SNAAwPluyCaoNXWn2yneNHVTVY2NzcbVX2XqeT3/Tne2NiQ48ePC6r5Qm0sGFeF56phnrPOc4cmONq90QDaQ4AGehQLulUXvKrqcd2qZex5prq8nVahL126VPv4RSr55vPe5HPcVQjSXxpWV1cFcU3Cb6iK7Au5sQBcJ4z7+q3t10sFGmgfARroUSzotrkrYdVrwJV0Asrhw4c7nYiyyOe9y3+rCxcu0A9dIRRwC0+bhTneF2jN7fZ53ft951wmwBOggXYRoIGeFUV4rWDCbX90UmFVP3TIEMOK9kNriEZYKDjHlp+raqvwTSz09TU/VDEBsarCTYAG2kWABnrmWyu4rYtd1YWz6nmmftHVXmhtb2hqqL/46CYrp06dEvjZ3w9uwPWFYV8F2BduDV/YDd1mn8t+TQ+xjB2QBAEayFBbAayqF7rqeaiA7/dDb29vS1N1AkuTUNN2AAqdTzeVYZMVv1hLhRELzLF2izo90HX7pEPBHEB7CNDAgLVdQXaP56K7z2yy0iQU1/mLQpNfUNpaO7rO+dhkxa+qVSLU2rFML3MoiIf6r91j3fsAtIMADWRg0aDadgXZPZ4K9D4Nzxqi63w+mq633ZVlnlMnEzKp8Gq+4Ny0qhx633f+WEAPDXtFjlCVHMDyCNBABnINqlx0H6ZtHCdOnGj0GPfz1+bns+t/G13Wjn7oK/laJHyVXrvaGwva9rGxyrL9b92kWk2ABrqjAbrTDcOpYADDDaJUoK907tw52draqnWs/pt3VdH3nbsL+gtD018axiwUbn3BNbaahn28uc0XpmPn8t1eVaEGpiJF9iRAAwksEnaWueC5Fau6xza5b6pMP3SVLlZV8Z27a7rVN5us7PNViKv6m01LRaidI3S7Pk6Fep1DVW59q4+1Q7l7PDB2CbLnHi0cQI9iwWqZkGQ/1j2P+5zLrNIxRbq5ypEjRxptsjL0zyP90PtibRihEG0/zjep8KHIknehqrP9WF8VOvRaAbSHAA30KBasurrgEYqXt7OzM1vubSrYZGVfLJTGgrGvGuwL175e6lBgd5/TF9gJ0EB3CNBAptoIulw0u6P90O4mK7HPt+8+N4DljE1WxBuEfcFX+cJuqLrsHhNq2/BVon1VcF+Vmp8FQLs6D9D82Q+o1jR41dUkhFcFPFxNN1nRarTRtB0m1moT09e/i1bdNUhPWai6Gwq3sY99QTl2Pt957NdU1coBTEWCdezv1wC9Jx0iQAPVqoJXioufb9Ib7R7VmvZDt6HPfxdt5ZjqJiuxkNs0VFcNVfVY+zXZx4cq0wBacz8tHEAm7IugK0Vgsp+f4FyfrsihIXoqprzJSlUwrhuSff3NvlYQX5iueu5YTzSA9tDCAWTChNY+/pRvh2bCc3O6ycqZM2dkKqa6yYov/JrbY1XgUJB12y3c2+sE8Vjl2ncfgHZogL4kHSJAA91pK+yGzsNFtz7tD9Yg7arzOWzyec7l32SKm6y4IbVOxdl+XFX49VWTQ6txLFLlBqYiQZvZA7RwABmre9ELHWdfwBd5XqrRzWgrh7vJSp3PYZPPc9N/ky6Dk1ahp7TJSp2VLnxtGLEVO2KBtypUq1DQNve5VXAArbiPFg4ggUWDcN2wZI4LPb5p6CI4L2aRTVa61uW/pf58f+c73zmZn/NVleZQT3Ko1SL0GF+F2j3WfFz1nEwixBSlmOjMKhxAAk2DcNfPg+7osnYp+6G7rCz6zu3edujQoclsstKkZcJXDY5Vrd2QHJpkaD42W4SHArnv9QJozSUq0EBGUl7kuKB2RzdY0Y1WVNcBt8tfmqrWrjamsslKqH3DF3TN8VXVal8rhi8Ax1bX0PvcQB1azQOYghTZs/MK9MGDBwVAPcuEoaYXyDrPxUV3cTqpUKvRvvW125LTXxymsMlKrN0i1F4R6ocO3VYV0qvuqwrdwBQkCNCsAw3koI2LG+0befH1Q4/932gKm6yEqsp2NdmuKtuP8T3evc33XO777nOEKta+8wBTkCpAdzrbZao7VgFNxIJVnxc+QvlydEWOY8eOyZjEvh7HvsmKbzJgrDXDbenwPd4NwnblOtYP7auC+57PXbUDmIIE3Q/dB2h6oIHldBFi64ZyqlbL29rautwPHWJ/nvv6nNd9Xt/Xo/3YMW+y4guzoZaJWDtFVatFVZV70eOAqUhVgd6TDhGggWZSXOjqVrypQLdDNxzxbbJi2J9n93Me+3po82tlmX9r97H6/3v8+HEZGzeghsKsW3F2q8n2faHKs2+4x4WCcuh1AVMxih5oAjRwpaoLWd/tHITmbmgrh7vJSh2xf4+6/1Z9hCedVDi2TVZCrRN2i0QoRNvvVwVecx6jqnIda/WghQNTlKB9+P5ryh/Ae9IhAjRwparQ47uA1n1sG9wLN9rRZz90H78UjbEfuk7bRKhVI9avHDpHrModCuFupZvqM9A+zc5JVuFgIiFQ36K7B9a1TAUcy9E2jpMnT8pU6M/+MW2yUifILjvafB43tANTkCpzmgC9Jx2iCg3kg4DcL91kZXNz03tfk0qhe2zKKmOT5xrTJitdh+eugzYwBQky557+xwRolrIDcBXCdje0Cu3rh27y+XaPrdsatOwxdZ7LNZZNVh56qHoDlFBLRZ22iyZV5TqTCQnQmKIUEwj1P0kCNBVoYJi46HZDN1c5fPjwFZus2Lr4vNcJvcvsmlh1/Bg2WakKquYY97Y6S9iFVtxw73PPZz62nzvUOw1MQYoJhPofE6AvSYcI0MAwUYHujlagQ/3QfX/eNWxVhWn3tqrXbCYVDlkoJIcm/oUqxHUmB8ZW1qjz1vf6gClIEKD39D+0cAAZ67pqVHV+qlbd0l5o7YleVtv/TnXaQxYJ+bqs3R133CFDpSH0wQcf9IbgJqG4SZtGneNj1W23Wg2MXYKi7QP6nySTCBNsqQiMkoYUc+HrI0xTge6eVqFjm6zU0de/0yJfk7rJio4hirVkhG6vqiQXxdX9zOY2+5x1QzUVaExd6hYOKtBAppZd1i4WcmI74CGdRTdZ6duiXzO6KscQN1lxQ6nh9ifb77uPs6vB7sf2Y2KPqwrJodcJTEGCou2e/ocADQzEohVognH++txkpQ9D3WTFF5yrgrFdoQ5Vn8256lSXq9o0Yq8HmILUy9jtSIeYRAgsjyA8btrGkUNrwzJBq8ljtbBy/vx5GRJfaA31Qdfpjw4F3ybB3FedDoVsYAoS/HUr7TJ2hGggT1Sm8nHu3DnZ2try/puk+nda5he1po9dX1+X48ePy5DUDcF2dTkUsM19oSq1bzWPWPXZPSeTCDE1ibLmnv5nFqDLH3oaoGnjABJKVemrEgs9XHTT01aOS5euXll0rH+B0FVIhrLJiq7AEWuZcG9XsYqwe7tZ4aNJG4d5jlDwpgKNKUmRNeeZ+XIFWhGggYSW2TmuzTAVeh7Ccz90c5UjR44EN1kZI23lGNI1wheWfdXiqn7l0Oob7n2hwB3rr3Yr3cAUJKhAX255tgP0nnSIAA00k6riGHoeeq77s7OzI2fOnJG2LPrLUKpfovT6MIRNVmJhN1SNjrV4uOE3Foyrzu8L2ObxVKAxFan6n5UdoDvdjZAADSymz0owIbo/2tqgPdFq2a+BRf8dzeNSfA3efPPN2W+yUif8+m6LheI6IbwqgMeCs3kfmIJUK3CoZBVoNlMBFkOIna7Tp0/PqtF9fw109fx2sNPn0FVIjh49KrmqE3BjPdKLBuU2zkcFGlOQoAJ9udicLEAPcdF8ILXcKkVUrvpl+qHvu+8+aUOKf88mz+EL5lp5z/Uvlm5ADvUn+46tU0UO9ToXNdo3fMGZVTgwNak2UVFMIgQy0kWlr+rCyYU1b7rJystf/nJpQ4qvr2WfQ/8Ee/HixSyXPvW1Sig3NLtBOhR2feHWfVysquy+Jvf5fPcDY5agWLtn3rEDdOebqbAWNLCYZS5+VYFG7w+dn/aRPOgmK3UmFaYMSea5uthiPtdNVnxBuWpVDfdxvseEQnFo1Q03gLuvyT6P/bzAmCXKmd5JhJ2vmUQVGmhm2ZCyzHMiL9oPrUE6JuXXybLPVfX4HDdZ0e8Nsxa0ed8Nt+Y4E3DttaNDrRm+9o2qpet8j1f28/qCNjBWidaAvnoZu/nC0HvSIfqggWZSrPfsPg9V53xpP7S2dPShjwCmq3LktMlKnVYLX5tF1TFtPTbUzmHCPjBmCQL0nv3BNc6dnW/pDaAfTYMxFav8mEmFfYi1+nT5nDltslJVFa4zYTDWkhE71zIrdfC9jClI2f+s3AB9r3RI1/kEMAxUovOky9qdPHlSUnCDV92viSaBrerYnPqhQ60ToQBcZ+Kge7/veXzH+s4Xez2EaIxd3xXoPekQLRxAfmIXVi66edKl3nR0bdkNWNo6Vts4cthkxQ6iD9VcmznWs2z3LofOE+uPDj2HuwIHPdCYgptuukk6dsWGg0kDNJMIgav1fWGj0jxMuiqHVqNz0uXXcg6brPgCq327e7/9uCbtHaEl63zPFatWu5VrYMwSFGmv+IF7TezOtrGUHXC1vgMslalhMv3Q+jYXXa8z3fcmK27F+KGaK2tUVahDlWX7WHv1jzr90PbjaOHA2KVewk4lrUArqtDA4rq4CFKBHi5dkePYsWO1j1/066fP8GV/feoF8jd/8zd7K8SYIGrCrLkttP5zVb9yrHLsq3SHwnUsvNvnBMYqUYtwuALNUnZAvvQC6Au7bV8Y7fMRrvO3tbUl586dq3Xssj3NOYSwQ4cO9dYPHaokm/vcY8zHdvuEe58K9Tm753DfmseG2jjcxwJjlSBb3j/PyJdd4zloTzpEgMaUtHnRCoWftkOufT4uusOg/cFVm6y0oatfqJp+nW1sbMz+n1OrapfwvR/62D3ePr9bOY5Vmt1z+24z5wLGKkF3w1Utzr4A3elSdrRwYEq62OY4JSrQw6GtHHU3WUnx9dXkORb5Outjk5VQG0aTCYK+CrV5GwridarcsfPbQRoYowTLJF+VjZNXoFkLGriaGzb6WG+XCtWwNemHTvGLUYrn6GuTlVAAjg1f/7I7QTB2Pt+kwKrw7oZ9YKxSb6Kikgdo/WHHShzAlZbpTa0bfKueg9aN4dM2Dt1kJeW/37LPVefxoWNSb7Li60MOVaTdYGv+PxYZbt9zVYD2hXVgrBKtwFGrhaPzhUXpgwaaiYWMNit95nn62LYZ7dCl3t7+9rdLKst+/dV5fOyXu5SbrPgqweZ2874dVmPtHqEl63wjdoz9/L6Jh/RAY+z6WIFDXRWgyx9Ue+Ksddc2AjTQTBch2Xeb/Tz0Pw+XTrDTlo4uQlMfQcx+Tt/XZapNVnwV5dgEPt/7vtaKUCXZPEfoud3nV7HJisAY9bECh7omcPCedIg+aKA/vgASCstUrYZJN1c5fPiwPPDAA9K2Pv46UeeXuRSbrMQCr7m/6rZFWzd8oTt0fGgAY5R6B0IjFKDvlg5RgQaGgSr0cGkFWvuhl+ULXl3vOLgI7YG8ePFip72QsXBsT+5bdnWOrgYwRn2swKF6qUCzlB2QL/tCy0V32DY3N2tvshISC8uF02bQ1fPUpdeWLvuhY1VgZW4378cqyrGqc9XExFB/dNW5gTHqYwUOFQrQnU4k1AoBVWhMQZOLVi4XOPqgx0X7g3d2uvmRbr4+cvo60V7orjZZCYXa0ATB0CRA3zGxMPyQZzk68/Mi1oPtPh4Ym74mEKpeArQiQGMKmgSL3DZd4YI7HkeOHKm9yUpMn18TdZ9bv4+62mQl1h5Rt6ocO0+dPue6lWzfscDYZBeg57MN96RDBGhgcXaY6Kr6x1J24+FusjLEf1d3Kbuq/4cuNlmpUx2uG2ibjFhbR5PzAGOTYgKhbwUOdU3kQZ1u6X3bbbcJgMXQWoGmdJOVM2fOzN5f9uun7zCmr7/q/6GLTVbcMGq/dd9vc7jP73tuAjSmKMEEwkuhO2IBels6xERCTMlQLl7u6ySoj8vp06dla2tLFtV1z3Pb3ycpN1kBkF4XrVqOYEtzLEDvSYeYSIgpya2/OcR9nVStxkdbOUw/dIp/3ybP0UUw1wmF6+vrAmBcEmXI7dAdsQDd+UTCBL85AIPWJFCEgop7O6F42nSTFZ1UqG9T/IUhxXP00Q8NoF+JMmTzCnSKLb3ZkRBTkEO/aOxjTI8ua2f6oduy7Nd5nceHjqn6mk6xyQqAtFKs/xyaQKhiFWjV6Y6EVKAxBakqcARjNKFbX+toy7Jff3Ue767E0UTXm6wASKuvHQiNqgC9LR3SH2hUBIDF2LPwu1zKDuOlVeiuNlnpwrLLN25sbHS2yQqAdBLNo4v+cKwK0HvSMarQwGJS7AJHv/S42f3Qi+h7kusi/t2/+3dMYAcGru8JhKrXCrQiQAP5ogI9froih4boKr6w3MXXR9ehXF/zhQsX+OsnMGB9TyBU0QCdYkdCJhIC9SwTLJo81t2oAeNnb7ISEgvLbX6tpPilTdsHNUQDGKYEm/HtxCYQqqoKtOp0IiF/SgOutOhKAzFNHpuiNQT50U1WNEgvou+vlUUCvFawTp06JQCGJ0F2vFR1QJ0A3ekME/0zGm0cwMNyCq5UoadFWznMJisxfX5dtNlKor80sMkKMCyaGRO0YG1XHVAnQG9Lx6hCA4tJ0S+K6TCTCqv0+XWxzFJ2PmyyAgxLDhMIVWWALn9YaQW60w1Vbr/9dgHQnC/IUDXGMnRZu5MnT0aPyaVPvo0gr5UsJhUCw5EgM94/z75RdSrQqtM2DirQQHtCoWKRiYSYJt1gZXNzM3h/133y+vWX8mtQr0H0QwPD0Pf6z0bdAN3pREL6oIG4NsLEIhMJCdLTpVXoOv3QXdCvv9RtIrrBCpusAHnT8Jzgr0W1Mm/dAL0tHaMKDTzMDa51w0Qs8Lr3pa7yYVi0H/rw4cPeTVZy/bpZ9HWZx+lW31yLgHwlKrZu1zkoixYORR80xq7Jxb0qMC+y1J17Xx9VPgyLVqCPHTt21e19734Z+/qv+30W2hacfmggX4myYnstHPPFpLelQ/zWj7FrM3QsGrCBpra2tmY90anU+T6JrcRR9/ssdBybrAD5SpAVt6s2UDHqVqDVvdIh+qCB/FChhtJ+6EU3WelCqHocOqYpNlkB8pNo/efaWbdJgN6SjhGggWp1gkFbwZdKNgxt5QhNKkz9ddK0Sr0I3WSFaxKQj0Tfj7WzbpMA3XkfdIK9zYHBS1kVpgINw/RDL7MTYFtBO1Vg11YONlkB8pAoI9bOurUDdIo+6ETleSCpHKu4dSdqUYGGTds4Xvva18qi2vqFLNUvdmyyAuQhUZtv7f5n1aQCrTrtg1b8yQzoXoo/gWOcqjZZyc2yS9vdfPPN9EMDPUuUDRtl3KYBmj5ooKFlgugiF/82q8aEaPiYTVb6/AtF3ede5mv4oYcemj3PD/7gD8o/+Sf/RAD0Y319XRJolHGbBmjtDald3l7E0aNHBcC+RXpLY4+hJQNtMJusPPDAA8Fjuv5ac7/O23w+cy7TxqTjjW9846waDSC9FP3P5c+U7SbHNwrQ896QTicTap8La0IDzSy79i3QlFagtRKtlplY2JY2V57RodVnZarQBw8elF/8xV+kHxpITDNhgsm829JQ0wq0uks6lqhUD3QuVBUbSiWYijVitBf63Llz0Y1NlpH668+EZbsCbd7qeNazniW/8Au/IADSSdTa2zjbLhKgWc4OqClUFTO3Nw0IXQeKRXd1w3SdOHFCdnYeviy0uUtmG19/dVecscOzO+zjvu3bvk3e8IY3CIA0Em3fvS0NNQ7Q8x6RTvugWc4OYxO6iDcNCF0FWvP6CMxYxJEjR2Z90XWk+BqrOyfAHOuGZBOoTah2w/U//+f/XL79279dAHRLWzcSVKD3yp8TjYvDi1SgFW0cQAO5B1OCM5ah/dAaom0p2i/c4Gs0mXwbqzjb53VbO37u535ObrrpJgHQnUTtG9uygEUD9LZ0jAANAMOhm6zo9tdGil/K6q7E4QvFvhFr43DH4x//ePnZn/3Z2eRCAN1IlAXvlgUsGqA7Xw9a+6Bp4wCYyIfhOHPmzCxIu7r6GnarzlVzDsxj6vQ628eaFTnc4174whfK61//egHQjURz4rZlAQsF6BTberOcHbCvz/YKwjua0lYObemwdfU13PS8oaqz7z5zu+FWp83H3/d93zcbANqVaD6cbt+9JwtYtAKtFip5N0EbB8bCF0QJpxgjnUzYZFJhCr5KswnAGsLd/mb7/TptHT/yIz8iL3jBCwRAezY2NiSBhbPsMgF6WzrGroQYC1+lrIuqXN1QXvc4JhdiEbqsnfZD5/BLoi88uwHZt9qGed8+h/0Ytx/67W9/O/3QQIsStW8s3JK8cIBOsZydlu4TzcAEOtFGgGhj3dw66ztTEUebdIOVn/iJn5BFLPsXGzcoq1A49j3W93j3vO545jOfOdtYBsDyNPsl2H1woeXrjGUq0OpO6RhtHBiyNiq4i2664jvHsscATWgV2t5kpa4mf7GpCsKx9gxfT3PV7aGeaR0vfvGL5Yd/+IcFwHIStW9syxKWDdCdr8ZBGwewr07ApYqMnKTohw4tZecLyvbH7vuh+3xB2rcqh3n/ta997SxIA1hcovaNpfY0WTZAa2mBNg6gpq4DLq0ZyI1vk5U2hNo8YiNWZbbbOmL9z76A7Z73bW9726ylA0Bzido37i+vl0sVgZcK0PPl7FiNA6ipjzaJpn/6Btqma0PrGtGLcivFKlZ5DgVb33G+5wlVrevcrx73uMfJT//0TwuA5nJffcNYtgKtaOMAEmsj/NISgpS0H9q3yUod9iYpocqz+zZ0W6iv2ReKfatzVAVyM/7iX/yLcurUKQHQTO6rbxiDCNC0cQBXqlvJjgXgWBBp+jxAHb5NVppyvybrhNxYz7J9n3kbq1y7j41Vp//BP/gH8g//4T8UAPUkat9Q/QfoFLsSKto4gObMJhGqTjgmMKNLZlJhG+pUgd2AXKcFwz1nVfW5KOKtIcePH59VowFUS7X6xjy7LqWNCrRaaiZjHbRxAIsxIZpwjBzosnYnT5703hf7i4nvODcoVwXjqhBsTya0w7d7Lt9zm8e7r0f7of/zf/7Ps81WAMQlat9oZQnmtgL0pnSMNg5gMXVDCZDK2bNnvZuOVP2St0hgdm8PHWd/n7jHulVsE7RDx7vvP+MZz5C3vvWtAiBMOw0StW9sSwtaCdCp2jioQgP12GHAnoAF5EKr0E36oX2tSL7QWydM+9oy3Opzk3PFnt946UtfmurP08AgJWrV1faNPWlBWxVo1Xkbh35ytRINII7AjNxpP/Thw4drbbLihlO3VcLdmjsUfN3j3Eqy77F2e0bVpEHfa7Vf4xve8Ab5lm/5FgFwJc12iYqkre2g3WaA3pSO6SeY3+ABYBy0Ah3qhzaqKr72cVUh136cHZx9vc+xx/tel/u40Gt8y1veMmvpAPCwhAtFbEtLWgvQqdo4br/9dgGGxvfn51wN4TViPLQX+ty5c7P33a+9OtVeN7Tat7vncKvVvsq2+/yx12Ue43t+93nN+09/+tPlJ3/yJwXAwxJVn1tr31BtVqBV520cOpGQNg4MjWmpWLa1IkW4tV8jYRopnDhxYrbJivu1F2vLCK2Q4duS2xeAfWHafYwvCDepVPueVz3vec+Tf/bP/pkAkNnEwUSLRLTWvqHaDtCb5Vh6bb0q+sMWGIo2Q2gsgPvCRpfPB7Tp2LFjlycVhqq3vspxrDIdOtZW99zmPvsY+xy+161M6Hb/P175yleyvwEgkrI1d1ta1GqAnrdx7EjHdGF6YCh8IbSLyq79PKmeE2iLhmcN0W4VWdUJt/b9vmNjEw/rhOhQIA89t/3Wvc089+te9zr6oTF5ido37mqzfUO1XYFW56RjrAmNoQj9CbePyi7VZORO2zjMpEI3+PpW27Dvqwq75mNb6LG+YOwe63uNvtDta/kwrr/+evmZn/mZ2WYrwBQNaetuVxcBelsStHGwJjSGwA2tdTaKaIKqMsZGJxRube1f60KV3FC1t05FuulKHb5zxl5HbFKh+zgdT3va0+RNb3qTAFOUqH3j/vLauyktaz1Az9s4Wm3U9mFNaAxZKPg2rRJ3VVUmmKNP3/u93yu7u7ve4KlCG6HY98cm+5nzGaFw67vPPW7RHRHtx+l62H/v7/09AaZEK8+JiqGtV59VFxVo1cmLtbEmNIYsRTtFLARXBWTaPdAn3VxFd+677777rqoah5ans29z7zcfu7eHQnjd243Yc1adw9z32te+Vr7pm75JgKlI2IrbSVG3kwBdXny3JUEbB2tCA2GxEFw3IFOJRl8uXbokP/zDPxyt7Np8LRqG21ZRZ/m5ZSvRsXO7r9s4ffr0rKUDmIJTp05JAnvzTNq6rirQqvPJhPrbC5MJkbOcAugir4VKNPr0X//rf7286YgviPomERr27fZjfME6dH77XL6QXGfCoX1f1fme+tSnpgoVQK8STh7sbH+SLgP0piTAOprIWduTBpuyz79IGM7pFwBM04/8yI/IvffeGwzCoQqx7zi3T9q93bzvex4jVFUOhe6qKrX92tWtt95aub05MHQJW3DPSkc6C9Dz9fa2pWPagM5kQgxJKNTWDatNQu2yFWQq0MjB3/27f1ceeOCB6PrNvoBqjvHtWlj1vn1b3d5o5b6+UNU6dq7v/u7vlr/+1/+6AGOUcPJgq1t3u7qsQKvOt/bW8MzOhBiSUCitG1YJtZga7Yd+xSteccVtvuXoVKw67Ibc2HGxlTzMY8z3om+Coxva7bexXwLM0OuatnQAYzP0yYNG1wF6U1gTGrjM9yfbPl9HW8cBXXvf+94nb3nLW64IsyoWnmOTBWMbnISEKtP2baFgXne5OzMe+9jHyn/4D/9httkKMCaJ+vw1e3a6IlynATrVmtD65wAmE2IITMWqjSryMuGWKjaG6Ed/9EdnQdqIBdCqkGrfZ5/PVJ5DOyBWVa/rrPDhe5zv/qc85Sly/PhxAcYi5c6D8wzama4r0KrzNaEVM5eRI/eC2CYTgmPnbfs5gb698pWvnLV0VC0bVxWkjVCYdu9TVRu4uNwgXidou+M7v/M75W//7b8twBgkbLntvHjbeYCer7+3LR1L+FsNUJuG3FjVuY2A23S9Z0I1hkwnE37P93zP7K2vJUPVCdKxFTHcc5nzG1Wh1wRnH/v7L/Sa3df2Az/wA7K6uirAkGlGS7R/R2drP9tSVKBV55MJFTsTYmj6aKWgfQND98EPflDe+ta3Xv44tCRdqFpcVLRf1DmX/bz2ucz75n47UIeq1qHKuH3s61//eiYVYtB0o6BEzkgCqQL0piSYTKi9YixpBwDj91M/9VPyn/7Tf/JWet0g67utKkj7HldVsbbfD23uEgv1vvObx2k/9Ote9zoBhkirz7fddpsksi0JJAnQqSYTsqQdxsK+eA7hvEAffvzHf1z+1//6X97gGqtKV62IoUKbq7jHxkboWPv20Pu+42+++Wb5/u//fgGGJmGb7WaXaz/bUlWgVZLJhMxYxhBUBdmu2iz0vIRojMVnPvMZOXbs2OV+6FjQtT823wd1qsBVFWP3edzKse/+0KoevrWt3XHkyBF52cteJsCQJFzoofNirZEsQKeaTKhVaJa0Q+767EMmRGNMPvzhD1/xl8eqUKxCk/fsj2Pvu8/j3l+3LcM+t4/73Oa5vu/7vo9+aAyGzk9LVH1OMnnQSFmBVkkmE7KkHcagq5Db5LxMOMQQ/Nqv/Zr823/7byvDsPu2buU5tmKH8lWl3efwPWfofd//g/1cusnKj/3Yj83eArlLuNldksmDRuoAvSkJJhNqBZoqNIauyzYOgjHG5o477pDf+Z3fufxxKDzblVzfcb4qtX2fe47Qce5z+CYm1nmdoVCtkwpf85rXCJCzhHlMq8+bklDSAD2fTHhOEqAKDQDT8kM/9EPyoQ99qHJ9ZVVV8TXvx/qq3faNUOitGvb53VVFfMeY91/ykpfI+vq6ALlKuLzwtiSWugKtNiUBqtDIhX3RG5ohv3ZMz0c+8pHLVdlYUPX1Lccqvg8++KA3IJvHKXfzFHOsL8yHXp97rlAYt8/5qle9Sl74whcKkBvtex5r+4ZKHqDny4tsSwIJ/+GAoCHvBkirB4bmj/7oj+TNb35zrYpvqArs3mcm3voqzvbjzX2+to5Qv3PseUPh2T6nDp1EqS0dQE4SbpySbOk6Wy9Xx/Ibf618c1ESuPHGG+X++ztvuwa8dnd3ZcjOnTsnZ8+eFWBodJLdy1/+8mBoNh/7ble+sBz72L2v6jmqHm8fU7U8n96vuzO+4Q1vECAHWn1OeP07nHL1DaO38lL5ja8Bek06dubMmZS/BQEAMvD4xz9e7rrrLnnGM54RnOhnv1/nY985qgJv3TAce277OWOP/+Vf/mX5mZ/5GQH6trm5maoLQCcPHpIe9BmgdeHOO6RjWn0+dOgQVWgAmBgNz1tbW/K4xz2uduU4dJ+qE4x956uzNXjseWPHua/pR3/0R+X3fu/3BOhL4urzsdSrbxh9TCI0NiXBknZs7w0A0/TRj35U/vW//te1JvIZVdXnUBXafOybOGjf554zFIrd96tei/EDP/AD8qQnPUmAviT8q/9eX+FZ9RagUy5pp9t7a5AGAEzLhQsX5O1vf/tVQdldx9ld9SK2HJ1vEqAvzNrH2rf5KtT2ud3XGAvc9mvXcd1118mb3vSm2VsgNa0+33bbbZJIsm27ffqsQCudnUQVGgDQGdPWEAvARigYxwKsG2Tt933njVWY3eObDPO4Jz7xiXLs2DEBUtO+50TbdqtN6VGvAXpehU7yGwRVaACYrje+8Y2zlo5QSK1bcY6FV/e85n1fSHarzYWnDcS9vep89sff/u3fLt/1Xd8lQCoanBNunNLL0nW2vivQKskaWVShAWC6NDzrMm+hQKxCVWkjdFwoTNc5rqqaXOfY0OO/53u+R2666SYBUkhcfU6+cYqr9wCdcmMVqtAAMF3vf//75a1vfWut8FxV6bXf9x3vu993W92AXFUFDz2fbm9OPzS6NrXqs8qhAq2S/CZBFRoApu1nf/Zn5eLFi8FQXLV9dlWINecLLWvXdJjHu68z9prtPmzthz558qQAXZpa9Vlls09vkWhjFdaFBoBp03Whf+7nfk6e+tSnzj4OVXFjH1c9TsV2M6xz7jqbrrjPEzr/O9/5ztmKJEDbNDjrL6WJAvR2WX0+LBnIpQKtqEIDADr32c9+Vl796lfP3tapLIeqwr7QbO5zQ619n10lDp03tIRdnQDvO//6+rrceuutArRN132eWvVZZVOBVlShAQCpvOIVr5DXvva13uqwb/MVNyy71eZlK8Xmffe4WDtI1W324z7/+c/Lv/gX/0I++clPCtCGxLsOZlN9VjlVoFWyKvSpU6cEADBdP//zPz9r5fBVbw1fhdncbt7GwrYvPMeqxe5ERPtxVcvXucHcfdxjHvMY+cEf/EEmFaI1CXcdVL1unOLKqgKtUlWhlVah9/b2BAAwXbpT4dd//dfP3q+qHFdVj33B1nd8rCodqybHzuM7xvf497znPbNfHIBlJK4+67bdhyQjuVWgVbL+ljvuuEMAANP2ute9Tj73uc8FK8LKreqat3aAreqnrnNMaNjPFzqH/drslTjc4/7KX/kr8pKXvESAZSSuPmfT+2xkV4FWKavQhw8flu3tbQEATNctt9wi//7f//vKanJZBYuG26Jmlbrpx3WfI/RY3zFvfvOb5cMf/rAATU29+qxyrECrZL9p0AsNALjnnnvkbW972+z90AoZ5j53q233GPd2twrtVol994UeF6s2++7zncv4R//oH9EPjYWcP39eEsqu+qyyDNDlbxrbkmh3wrW1tdkAAEybBmgN0ipW4TV8rRVt7EboC8T243yvp8nzmPGEJzxBXvOa1wjQhO44mDA3afV5UzKUZQuHKr+518o3FyWBnZ2d2Z/vAADTdv3118tP//RPy1Oe8pTZx752CHeVjtAyc+7jYqHZd3/o8bHzuq/D93rd49/1rnfJu9/9bgHq0NaNhOs+H8s1QOfawpG0Cr26usrmKgCA2WTCN77xjVdMKqwKu0ZokqB7vC/oLlK9rvrYDvfmffutuf27vuu75C/8hb8gQBWtPicMz9lWn1W2FWiVsgrN5ioAAONv/a2/Jd///d9/VYU5tr123a23fcFYH6sTFJfZ/rvuRi2+j3WTlR/7sR+TT33qUwL46B4a2uJE9XlfthVolbIKzRbfAADjl37pl2YjFHrtSq6vqhyaIOirUJvg+1DF9t2x5evs57bPUXfZvK/5mq+R7/3e7529BXyOHz9O9dmSdQVapa5Cay80m6sAALQf+t/8m38jz3nOcxpVgwtPa0fssb77zOPsY6vOV/c1xY7VZV0vXLgggC3xsnXq8LyImq2sK9AqdRWazVUAAEr7oHWzCNMPrUKBNFSJrgquoduqqtC+81VVm0PPo8xjv+M7vmM2AFviTVO2cw/PKvsAPZdsDcD19XWWtQMAzPzZn/2Z/PiP//jsfV+QdQOoL/C6j60KzeZ8oWOMJgE8dLz7XOplL3uZPP3pTxdA6UILR48elYSOyQAMIkCnrEIrNlcBABi//du/Le985zuvCrAq1NNcpwJsNAm8vudYJKTbPdn2cfqx9kHragv0Q0MlbunZLDPfngzAUCrQKtlvJFqBZkIhAMD4qZ/6KfnABz4we98NrrG2Cvf4qpBdVcWOndu9L7azoe989sc33nij/P2///cF05Z42TqV5a6DPtlPIrSV39RnyzfHJQGWtQMA2HRzlbe85S3ytV/7tbOPqyrFsY/d9+2w67uvzu32baGl9+q8Lvuxv/7rvy7vfe97BdOjwfnixYspA7RWnwfRvqGGVIFWp8uRJNHqhEJaOQAAhvZD/6t/9a9m77sV4lArhx2MYxVow32cG4TdkOu2Y7ihuGl4dl//S17yEnn2s58tmB6dOEj1OWxQAbr8zUTD8zlJRNs4mFAIADD+3//7f/Jf/st/CYbfUJB1j7Nv97VXuMdVTSoMheBQS0jsdvccr3zlK2dFJUyHBufEEwfPDKX32RhaBVppG0eyvgqq0AAA23//7/9dfuM3fmP2fiwo27fZIdW93Re47cf7zmV/7Faj3cq3+1y642EshLu3PfrRj56F6Mc85jGCadDWjYT2ZD/bDcrgAvS8Cp2szM+EQgCA621ve9uspcOtEldVeZWv39m8XaR6bM7pij2/e0xooqIZ2v99+PBhwfgl3nFQnZlnu0EZ1CRCW/kNfU/5ZlUSYEIhAMD15Cc/ebZT4XXXXXc5aNap7tofu++7QTi266Cvmh06d+xj9/bYeX7lV35Ffud3fkcwTj1MHNQtuw/JAA2xhcM4KYlo79f58+cFAADj4x//+OVrQ6gSXSeYGqHWDOVbr9k+T+jxdV6HbxJiqOqtf5V96lOfKhinHiYOJstybRtsgE69uQo7FAIAXNvb2/Lud787GpJDrR1VwdW+zz2PL7D7jgkFYbeNJNbCYX+s/dCveMUr6IceIV3zOfHEQV22bksGarAtHKr8Zl4p3+xKInt7e3LLLbfQygEAuMK//Jf/Ur7hG75h9n5o6Tj7tlB4jT3Gva3uEnXuc/g+9j0+9LxKr4d33nmnYBz0L+333HNP6urzoaGtvGEbcguHzD/xySYU6hcWq3IAAFz/8T/+R/nEJz4RbM3wBWc3BNtCVWTzmFA1OtSiEfrYfVyoNcQ95lnPepZ8x3d8h2Acepg4eG7I4VkNugKtym9mXZxSq9DJFqnUmcj6ZzsAAAytQL/xjW8MBlnzvu+20PtVrRXKt9lKUVH59lWi67xG9+P/9t/+m1y6dEkwXBqcd3eT/TFf7ZXj8NAD9KAr0Cr1snbqjjvuEAAAbP/7f/9vefvb315ZfY5Vlt33zfHu48zH9tbdTcKzrzIdem1utdv++G/+zb8pBw8eFAxX4jWf1eA2TfEZfIBW5T+ELsC9LYmsrq7OZqoCAGD7tV/7Nfn93//9aIuFLxwbvgCrYpujuLfZS+n5QnWdMO97Xb6PdVLhy1/+csEwaVtq4tYNXbZuU0Zg8C0cRvnNvFa+SfZrlE4k1AmFOpECAABD14V+85vfLE984hMrWyOULxj7jq8bhM05jVAwDrWHxM5vH2+/7ve///2Xd2fEMPTQuqEGPXHQNooKtJova3dOEmFtaACAz+c//3k5d+6c/Pmf//nl2+zgGmuPiLVPGFWPCT1X4bR++J7Hfq11gru57dZbb5UXvehFguHooXVjcyzhWY0mQM+dLkeyNebY5hsA4POhD31Itra2rgqmdXYPVL6QHGvh8J3L10Zi7rff950z9vy+YK9vv/Vbv3W2OyPy10frhiSer9a10bRwGOU3sSbaZLP8aOUAAITopiMvfelLg8HZd1uoHSN0f+yxVffVfXxRUZU2bz/zmc/MJlJ+6UtfEuSpp9aNY2PpfTbGVoFOPqFQWzkuXLggAAC4fvmXf3lWjXZDswpVemNV5brH1nmMCu1i6D7efb32/4N97PXXXy8ve9nLBPnqoXVjZ2zhWY0uQM8dk4RYlQMA4KP90D/5kz8564eOtT/4QmyoLcM3QdC876t0x84Xen7fVt9ucA6d6znPeY78pb/0lwT56aF1Qx2RERpdC4dRfhOfLt+ckoS0lWNnZ0cAALA997nPlde+9rWVAbZO0DVDl6sLreCh7DDuO7buc4eCtv087jnVO97xDvnIRz4iyENPrRu65vNpGaGxVqCVtnLsSULayqEtHQAA2P7kT/5E3vWud83eD1WGY+0cdSf1KXfNaHObfax7W51hv/bQ+/ZzvOQlL5HHP/7xgjz00LqxN9bwrEYboOc7FCZt5dDf7vTPIwAAuDRA//Ef//EVwdatGpvb7PtCFWbf/W4Lh28ZPPs5Qq+jKsTHVvgwH2s/9F/7a39N0D/dQbmH1o2TMmKjbeEwym9krUQfl4QOHz4s29vbAgCA7Wu+5mvk9a9//WyTFbf1IbT5Sexj+3Hu/e59Vedp8pxN3v/ABz4g73vf+wT9WF9f72OxA13zOWkRM7UpBGjtqdCmn2S9FbqknfZD6xJ3AADYvu7rvk5e97rXNQqrVTsLNgnFseN9YbzOjoXmOHsbcfs+bR/4P//n/wjS0qqzfu57WPP58Jg2TfEZcw/0TF+tHCxtBwDw0Yl1v/RLv+QNubFWCVXVCx0KufbbUO+zbwWO0Gv0jdjr001WtKUDaekKYT20bpwZe3hWow/QqvyH3JKEa0MrdikEAITcfffds1a/WPgNBWD3fve+UBW5qFGJts/nC8hNjrePfdSjHiV/42/8Dbn22msFaRw/flyOHj0qiW2Occ1nn9G3cBjlN/FK+eYeSdjKoS0c2g/N0nYAAJf2Q//jf/yP5elPf3q0haIqxFbdZ953jw8F8WWeq+qXAG1xfM973iPoVk9L1u3JBFo3jElUoNX8HzTpPuxml0KWtgMAuL7whS/I2972ttlmK77Kcd3hPiZ0Dnt5Ozs0m+NDrR11z2+ENl3R8axnPUue//znC7qjmaOHJevUJFo3jMkEaJV6m2/F0nYAgJBPf/rT8vM///NXVKB94dP+2L2vagtuewKie3+oUuwL3kZVD7V5fOi4b/7mb5anPvWpgm70tNvgZFo3jEkF6DmdUJh0eQzthe6hDwkAMAAf/OAH5bd+67ei1d2qCnHsccqtPseCd2iNZ9/kQlvsnO7r+7Zv+zYmFXZgY2Ojj/lXe5L4L/w5mEwPtK385tWvrjskIe2H1qXttP8LAADXa17zGjl06FBlJdkNsb4l7tzjQu0hZtm52FrS7usIheLQ/aHX/rGPfUx+/dd/XdAOrTrfc889fbSNHpta9VlNsQJtWjm2JCH6oQEAMb/wC78g9913X7CSG3ur3Aqx3X7hC7nmMVUTF+3ncG+PhfzQMeZ9beN40YteJGiH9j33kDEm17phTDJAzyVv5VhdXaUfGgDgpeFZQ3QoxMZud6vNvnYLd51nX4Xa8AVx9/l8a1Tbb6tCtd7+vOc9T5797GcLltPTVt17MsHWDWOyAbqPDVaU9iaxPjQAwEeXHnv3u98drfC67/sqzaqqkm3fb58vFrRjYd53jF29Dt1/6623ymMf+1jBYnS9555yxaRW3XBNsgfaVn7zajvHcUmI9aEBADEvf/nLZ3+1VL6Aat63t89+KLDlduzx7nGGe76iolUkdr6qwK0++9nPyq/+6q/KV77yFUF9PfY9a+tG8iJkTqbcwmGclv0/QyRDPzQAIOZ//I//cbkfOjZUk1DsO84WqyD7+qlDFe2iqNduYh6jFWidaI/6NDz31Pe8V46TMnGTD9B9tXLoF/758+cFAADXF7/4xdk1Qt9WhVE7uKrQcndVj42F3FAgt4+xb68T9N1x0003yXOf+1xBPT31Pasj8+w0aVSgZRait8s35ySx9fV1JhUCALy03e9XfuVXagVbFdppsAi0TYTOF1vL2TyP79i61We3x9p+Td/4jd8oT3rSkwRxmh00Q/RA+57pPxV6oK9QfgNfLN+sSWJHjhyRra2kq+oBAAbir/7Vvzrbva9uJTfUE73MWs+h/mojthRenddgD93a/O677569xdU0OGsbaA/2yq+tQ4IZArSl/MZdKd/cU46kDUVssgIAiHnVq14lT37yk2uHaHO771j3Nl8l2L3fCD2PCe4PPvjg5dtMkI89JvTxJz7xidnujLhSj5MGtWXjlimvuuGihcMy/8JI3hiv3wg9TQQAAAzAL/7iL86KLcoXfn0B2D7WbaGw2yiM2P1VId28Flto0mFsmHM+8YlPlBe+8IWCh/WcFU4Snq9EgHbMd9RJ3g+tv1X29CcZAEDmNDy/613vioblWA+yfZwRqzrbx9jBOvZxLLT77ve9DnvoBivPetazBPt0UmlPkwbPTXW3wRgCtN9pSby0nVpbW2NSIQDA69KlS7O2Bl9lt06lOBR6fZVo5dsC3G738D2f7zGh1+lOQLSf27z//Oc/X6677jqZuh4nDe7JfiaCgx7ogPIbV1ewvyiJ+6HVyZMn5ezZswIAgEsnnn/913/97P1QlTlU8fVNBrQ3Y4lVi937QueLPabuZEP7NjOp8Ktf/apMke402GMmOETrhh8BOqL85tW9Me+QHuikQnYqBAC4Hv3oR8vRo0fl8Y9/vDeo1g3Tvsf4eqLd9+uG5qr7qp7Lvu3DH/6wfOADH5Cp0d0oddJgT7TvmWpeAC0cEfMvnDulB9oP3VOvEwAgY1/60pdm1wizyYrd0mGEwqiv3cI+rurxbgU5toJH1brQ9nMVkSq3vv+MZzxjctfEnudGbRKe46hAVyi/cbWFQ3/9W5HEdFk7rUSbmdcAABi33nrrbO7MohXhqgp1kwqx/fz2Unah1+UL0O7xvv+v3/u935NPf/rTMna60oZWnnv6pWFP9pesI3xEUIGuMP8COiz7ayAmxcocAICQP/iDP5Df//3fn71fFZ5jleomFeJQxTm2LF7ovFWv1/ccL3jBC+Qxj3mMjF2PK27MMg/huRoBuoZ5A/0Z6YFWF3S/ewAAXP/zf/5P+fjHPz57vyqM2qrCbSiAm9vqbNtt3+5b/SO2RrRvpRGl/d8aosesxxU31BkmDdZDgK5p3guUfH1odeLECZa3AwBcRfuhdX3oL3zhC9EQ6y4ZFwrAoVBr+AJ5ne25zW2x49zX5Hvt6uDBg/Lc5z5Xxkiv9adPn5aenKPvuT56oBsqv4G1H3pVerCxsSF33tnLnEYAQMZ0kp0ub+cLp/b7TQKt75im54w9R+g4s6xe1Rbif/iHfzjb8nssel6ubq/8nB8S1EaAbqj8xl2R/fWhV6QHLG8HAPD55m/+ZnnRi140e9+EzNAGK/Zt9vGhirM5j2/NaPf8oY9Dr8t9W7ei/ZWvfEXe//73z1YjGbqel6vbk/2+5z1BbbRwNDT/AjsmPbl48SLL2wEArqIrVHz0ox8N9hD7Aq39vnucOUdslQ9zXKjtwve42G6Isd0P3ed4xCMeITfffLM88pGPlCHTa7pe23t0jPDcHAF6AeUX2nb55qT0QJe2IUQDAHx+9Vd/VT7zmc/M3q9qmYhN4otVlN0wa+4PBd2qqnJs++9YBV3ppMJnP/vZMlQmPOu1vSdn5pkGDRGgF9TnJisZfMMBADKkkwo1RPvCqVtJNu/b97m3+4KrvWRdVZXbfq6qjVvc81f9AmDGk5/8ZHn6058uQ2Ou5T0WxHTS4GnBQgjQy9GtvntpSCZEAwB8PvWpT8lv//ZvB9s1QtVc3+oc9mPsc8UCbZ0Rqiy75/cFdPdx6tChQ3LdddfJUOi1e2trq8/wrJMGTwgWRoBewnyh8SOy34CfnE460MXWAQCwffCDH5wNtwJdFXzt+9zw6vvYsAO3fVvoeZVdyQ49h31u+3H2Oc37z3ve82YtHUOg127t3+7JnuxvEIclEKCXNG+8PyI90cXWCdEAAJfuVPjnf/7ns/frVozr9EW7wTm0wYobguu2e/heixu2DfuYa6+9Vp7znOdI7vSa3eNGKeoIkwaXR4BuQfmFqG0cvUwqVLo+NButAABsX/7yl+Xd7373bJk3X0D1hVffxzZfa4V9e+y+qhAfei2+5w9Vqx/3uMfN1sTOlV6r9Zrdo5PzzIIlEaBbMp9U2Mt230p3LiJEAwBsn/vc5+R973tftJ0iVmm2R+w499x1jo8dV7WcXSh469AJhTfeeKPkpuddBtUZdhpsDwG6RfPZrFvSE0I0AMD1oQ99SP7oj/7oquqted+oqgiHKtNVITwWet23vupzLPiHHn/TTTfNWjpykUF43mLFjXaxE2HLym9eXRbjovS03bfSb9IzZ3orhgMAMvTSl75UnvKUp8ze963LXLV1dii4hh5X52P3tbivyfd43/P5zvP5z39e/uRP/kQefPBB6VMG4XmvHLfMFz5AS6hAt6zvlTkUlWgAgEuXttOWjlBQNaoq0e4xhhvKY9Vnc1xsObu6r8F+/fZjHvOYx8jTnvY06VMm4fkw4bl9VKA7Un7zagVaK9G9LdSsExXuvLOXvV4AABnSTUde8pKX1K4wh8JraGk637mqHhcK8b5wbZ/HfkzoWH37p3/6p/KJT3xCUjt69Khsbm5KjzQ038KKG92gAt2RvlfmUPqNq9/AAACoj3/84/L+978/uMazCgVbc1xoW24jtJZzneeITVq0z+8+xn2d9lutQms1OqUMwrM6RnjuDgG6Q+UX7qYQogEAGdG+4N3dXWnSUlFn7eeq1TqqKt2hSrQvPLv3xwK5vq+TCh/xiEdICpmEZ11xo7dFDaaAAN2xvpe3U4RoAIDtnnvuudwP7Vu3uer90H2+j32Vbt9xVUvsuaHdroaHgr+57ZGPfKQ885nPlK5lFJ5PCzpFD3Qi5TfwZvmm1xRLTzQAwHjsYx8764fWcOm2Q6hQVde93Q2+7jGh+0Lvh+7znbfOue2PtYXlk5/8pHQhk/B8ZxmeNwSdI0AnVH7z3iM9Lm+nCNEAAENbG77pm75p9n6TMOt+3HQpOveYWF91KDA3CeT2bbouti5x16ZMwvO9ZXjuNWNMCS0caR2WHpe3U7RzAACMS5cuyf/9v//3itaKWCuFb/JhbP1oO7ya+93jqsJz7LGxwBy6T3cq1Kp7WzIJz3vlWBMkQ4BOaL4OYxYhmnWiAQDqAx/4gDzwwANXhdWqYOoeX3d3Q19AD7WBuKty+Hqoq16jG9CvueaaWYjWt8vSa2km4Zm1nhMjQCc2X1Km9xDNZisAAON3f/d35Stf+Upwebu6gToUiH1hNjah0IzymhkM7KHXad/vHm/ef/SjHy1PeMITZBkZbJKi9mQ/PO8JkiJA92D+ha67Ffb62yIhGgCgtCdYQ7QKVW5V1TJ1VYHYdw5zrPsYd1k8c39o3edQOA9VvA8ePDgbi8gkPM92PiY894MA3ZP5RiuHpWeEaACA+tSnPiV//Md/HKzkum9VVf9z1Vbd7nlDITz0vh2y3WN853af54YbbpBrr71WmsgkPKvD8yyBHhCgezT/wj8mPSNEAwCUbrLysY99LFg19lWP3YmEqiiq+5Fjx4WeKxbCq4ZvoxdtEdHtzev2Q2cUno8RnvvFMnYZKL+JN8o356VnOhHi2LHe8zwAoEePetSj5C//5b882/66SUXYvNWQanqX6yxPp0LHxZ7LV92ucw7ffV/4whdma0THnD9/frYUbAZOzjdpQ4+oQGdgvuV3r7sVKv3BcOHChdmftAAA06STCf/gD/5AvvzlL9eq7LoVYxVbCs++zXd/4bRh+M4b+rhJ9dm+T9s4Hv/4x3s/H3pN1GtjJuH5DOE5D1SgM1J+I58u3/TeS7GzsyNHjhyRvb09AQBM07Oe9Sx53vOed1XbRdWmKeZtrF3D/dhXXdYqtu8coUmE7rnqvE53K3DdpfBLX/rS5c+Bhuft7W25+eabJQNs0Z0RAnRmcgnRGp4PHz5MiAaACXvuc587C9KxCrJyg2jo/jphOnRc6HxFRUtI7Pnd9x988EH5xCc+MXu7srIiFy9enL3NAOE5MwToDBGiAQA50B37br31Vrn++utrhdtFPw6dN/Q8vsea6rSv/9p+q0Ird+hbbWF53OMeJ7/5m79JeEYQPdAZmn+j9N4TrT847rnnHlldXRUAwPR89atfne1UqKHSDbK+oBvqfTYf25qGZ9/jVNUmKu55YlVrfV/bNbSVkfCMGAJ0pnIJ0dr/pSH6xIkTAgCYni9+8Yvyh3/4h7Uqz6H37QqxHbKrztc0rFe9H5tMqOPv/J2/I+9973uDEwoTIzxnjACdsVxCtLrjjjtYKxoAJur++++XS5cuecOnCaVuoHXXhja3m7fuMfZtocq0+34sDPvWkba5z/NP/+k/lXPnzkkmCM+Zowd6AIpMeqLV2bNn5eTJkwIAmJ5v/MZvnFVn3RYKZYda332hMGzfFrovtn137LXEKtv2x29605vk1a9+tWSC8DwABOiByClEb21tzTZc0YoEAGA6dFKhzot59KMfXRmE3Y/rVJXrntP3mCZVa3ObThbUTcRe/OIXSyYIzwNBgB6QnEI0K3QAwDRdd911V6yL3HQXwaqwbZ8zdHvhac0IhWnfY9Uzn/lMecc73jF7mwnC84DQAz0gOfVEm/UxWaEDAKbl85///Kx44qv6mvfrVImbVpjtJepiwblOeH7+859PeMZSCNADk1uIZoUOAJiej33sY7MNR3zhtarCXHVsLGj7KtCxYY61377qVa+Sd77znYRnLOWRgsHRb7T5D4Is2jl0hY6DBw/KmTNZ5HoAQAJahdYe4kc96lGzj93g6mvDsO9zt+oOVaDN8fq+eUysWm3f7p5fV9rQkRHC80DRAz1gOfVEKyYXAsC06GTCb/iGb5BHPOIRs49DvcuhoFt3i21fC0fonOa89m0ZThZUhOcBI0APXG4hmsmFADAtT3ziE2ctfW54Nm9DPcxu6LVbNNzH1qk4++7Toa0ambVsKMLzwNEDPXDzb8BsFmY2fdHr6+sCABi/T33qU/Jnf/Zns/fdwGx/HArPvo+r2jTc4B065ju/8zvlN37jN3ILz8cIz8NHgB6B8hvxbPnmmGRCt/++cOECOxcCwER85CMfkc9+9rPRcOxuo+3eHwrSoeN8Ox/a92uvs7ZtZLItt6HheVMweLRwjEj5A0PXlLtYjhskE9oXrTsX0tIBAON27bXXynOe85zZpMJY1bhpG4b9mDo7Emq/80/8xE/Mqs8Z0clBR8rwvC0YBQL0yMxD9IVyrEgm6IsGgGm4/vrr5dnPfrZ3e+9QgHbfj/VBV4VwXd/5/PnzubVs7Ml+eN4RjAYtHCMz/wY9LPvfsFlgvWgAmIbPfe5z8qd/+qez9+1WC1eo59m9zQ3isXNkuL6z2ivHYcLz+FCBHqnyh8mK7LdzrEhGzp49O2vpAACM1zOe8Ywreo/tEO17P9T37L51K9X6vu5D8EM/9EPy6le/WjKzJ/vheU8wOgToESt/sGgvtIborPbbpqUDAMZN14U+dOiQPPKR+/u1VfVEV/VC2+ewq9VabdaWjRe84AWSmXvLsVaGZzZGGClaOEZMv3HLcUv57p2SEdPSsbGxIQCA8XnwwQfl0qVLV628schQvpU3vvu7v3u2RF2G4fnO8tq7SngeNwL0BJTfxBvlm6z22dal7rRqoNuA6/sAgHH5yle+csX60LEwbY4JfWzfpq0hb3rTm+TcuXO5LVGnzsyvuRg5WjgmpMhs10KDlg4AGK+v/dqvlRtvvPFyeNYNVexKsqobprXa/La3vS23iYLGyfm+DJgAKtATMt/56Ijsr0eZDW3p2N3dZZUOABihT37yk/LFL34xuKRd1TDH6yob73jHO3IMz3pNPUZ4nhYq0BOU6wodSneNOnPmDNVoABgRnUz4dV/3dbP37S29lbvUnbvShrZpaMvfi1/8YsnQnrDG8yQRoCcq5xCt4VmXutNdDAEA4/CYxzxGnvrUp9ZabcOMb/3Wb531OmfasqErbayzTN000cIxUfNveF2hI7uUqi0dFy5cmE0wBACMg7Zx3H//fgdhVa+zmSiY4cYohl471wjP00UFGtlOLlRMMASAcXnyk58sj370o4N90JlPFFRn5nOKMGFUoGEmF2a5PaCZYHjqVJb5HgDQkE4q/OpXv+pdpk53FHzPe96Tc3g+SXiGogKNy8ofYLpj4QXJsC9aUY0GgHG49tpr5YlPfOLlj3WCoU4UfP7zny+Z2hMmC8JCBRqXzX8wHJb9HxTZoRoNAOPw5S9/WT772c/O3tfl6d773vfmHJ51suBhwjOASmU1+myRsTJIF2Wg1r/5MRgMBmOAQ3+G/9Zv/VaRuc1ysF0ugPrKHxqni8yV1ehBXTAYDAaDIbOf3ffdd1+ROXb3ArCY8gfIajl2i4xRjWYwGIxhjLW1tWJnZ6fI3G451gQAllH+IFkpMg/RSisaN9xww6AuJgwGgzGFoT+b77jjjmIANN2vCAC0pci8L1ppNXpjY2NQFxYGg8EY89Cqs/5sHoCzAgBdKH/AnChH9o1r58+fp62DwWAwehxadb5w4UIxAHpNo98ZQLeKgbR0aMXjxIkTg7rgMBgMxhjG8ePHhzBJUO0WtGwASKX8gXNDsb+8T/aYZMhgMBhphrZrXLx4sRgIlqgD0I9iv6VjEGjrYDAYjG7GgCYJKlo2APSvGEhLh2KSIYPBYLQ7BtSuoXbLsSoAkINiv6Uj+1U6DA3Sq6urg7pIMRgMRk5jYO0aSq9RtGwAyE/5w2mjGMAqHQZtHQwGg9Fs6M/MgayuYeg1aUMAIGfFgFo6DDZhYTAYjPjQn5ED2YLbdrFglQ0AQ1L+0DpdDAj90QwGg+EfA+tzNtgYBcAwlT/AVouBVaMJ0gwGg7E/tM95Z2enGJjdcqwJAAxZMaA1o206OYb+aAaDMcUxwAmCBhMFAYxLsT/BcLcYGCYaMhiMqYwBThA0tL9kXQBgjIr9CYaDq0YrgjSDwRjrGNhGKC5N/FSdAYxfMdBqtCJIMxiMsYyBrqxhsKMggOkpBlyN1omGetEhSDMYjCGOgQdndbFgeToAU1YMuBpNkGYwGEMaIwjOVJ0BwCgGXI1WBGkGg5HzGEFwVhcLqs4AcLViwNVopUGaHmkGg5HLGElwZoUNAKhSDLwabRCkGQxGX2MkwVmxrjMANFH+0FwvBlyNNgjSDAYj1dANUDY3B19/ULsFuwkCwOLKH6KnixHQIK0XNxnYBZnBYOQ/BrxzoI/+zKfqDADLKvbbOu4pRkAvchsbG4O6ODMYjDzHyILzxYJJggDQvmLgkwxtOuFQgzTtHQwGo8kYUX+zwdJ0ANC1YiSTDA1W7mAwGHWG/owYWXBWTBIEgJSK/SC9W4zIhQsX6JNmMBhXjJG1aRgXCyYJAkB/ihG1dRi0dzAY0x6mTUN/FowM7RoAkItivxp9thghVu9gMKYz9Hv97NmzY2vTMFhdAwByVIysP9pGVZrBGOfQavOJEyfG2KZhXCxYXQMA8leMZBOWEKrSDMbwh34P6/fySKvNaqegzxkAhqcYYX+0TavS2idJVZrBGMYY4RJ0PvQ5Y/QOCDByxX7Pnf4wPyUjtr29LXfeeadsbW3J/fffLwDyUIZm2djYkNtvv13KqrOMmP7gOVeOswcOHOCHEACMQTHi/miX/ll4fX19MFU5BmOMYwItGjbWc8akUIHG5BT7k1lOl+OojNze3t7lyrS+BdAtrTCXv7zK0aNHZ5XnCdgux7Gy4rwnwIQQoDFZ8yB9vhxrMgGEaaAbEwzNarscZ8rgvC3ABBGgMXnF/ixxDdIrMhGEaWA5Ew3NalsIzgABGjDKIL0h+xMNV2RCCNNANQ3Jq6urUw3NalsIzsBlBGjAMdUgrXT1Dg3Rd9111+ythmtgqjQka2A2q2dMMDSrbSE4A1chQAMBUw7Shh2md3Z2BBg7rTKbwDzyJeeqbAvBGQgiQAMVCNL7TKuHCdSsNY0x0KqyCcsTbc1wbQvBGahEgAZqmgdpXfpuTTAL0XfffffsLb3TGBINy7fddhtV5ittC8EZqI0ADTQ0X7VDK9JrghmtRmuLB+0eyJGGZNOaoW+pMl9hWwjOQGMEaGBBU9qQpSk7UOtbKtRIicBcy7YQnIGFEaCBJRGk67FbPjRU00ONNtg9zDfffDOBOU6/6e4sx1l2DgSWQ4AGWjIP0huyH6RXBFEaonXce++9tH2gNg3IJizr25WVFUElDc7nZD8485sr0AICNNABVu5YjAZpDdQmXBOqp03Dshk66U/DMtXlRrbLcVc5NgnOQLsI0ECH5hMON4T2joXZlWrzPu0f42J2+dNh2jAIy0vZFvqbgU4RoIEErD7p24Sq9NLMJEUN1bo+NcF6GDQQazA2Yfmmm266HJaxNNOmsUl/M9A9AjSQGO0d3THBWkP1pUuXLr+vg3Cdhh2S9X0qyp3bFto0gOQI0EBPaO9Iy4RrfauVa/tjAnZ9JiDb4+DBg4TktMxqGlu0aQD9IEADPZu3d6wJVenemUCtQyvYJlybgG0+HiMTfs1b876GYxOUze3ozbZQbQayQIAGMmJVpW8vB0klY3aoNuOBBx64XMk2QdsN3O7H5rFN+IKsfZvvfR0ahpUdhgnF2aPaDGSIAA1kqAzSmmjWZb+9Y00ATM22UG0GskWABjI3b/E4IftV6RUBMFaspAEMBAEaGBBaPIDRoUUDGCACNDBQ8+XwNEivC4Ah0dCs22xqtXmbFg1geAjQwMBZq3jQLw3kbVvoawZGgQANjAhhGsjOthCagdEhQAMjRZgGerMthGZg1AjQwARYy+Jpz/SaMAERaJPpaTaTAQnNwMgRoIEJKgO1hmkdtwlL4wGLuLx6Rjl2CM3AtBCggYkrw/SqPBym1wRAyHY57pb9lTO2BcBkEaABXGb1TeugOo2p06qyVpg1NNOaAeAyAjSAoHl1ek0e7p0Gxsz0MusEwB2qzABCCNAAapvvhKjtHjcLgRrjsF2Oe4VeZgANEKABLGS+sofpnyZQYyi2hcAMYEkEaACtsAL1muz3T+v7LJeHPpmWjNnEPyEwA2gJARpAZ6weajMhcVWA7uzJwxVmXSljRwCgAwRoAMk4Veqb5++vCNCcVpK3Zb+6vCf7gZnqMoAkCNAAeuUJ1StCpRpX2pOHWzFm75dheU8AoCcEaADZsUK1qVCbajU91eOmFeQ9sYKy0LcMIEMEaACDQbAejT1r3CtUlQEMDAEawOBZwdq8vUn2A7YZSG9PHl4F45I8XFHeo6IMYOgI0ABGb74aiIbrlfkwAdsEbjRzvzzcbqHDBGQTmO8nJAMYMwI0gMmbV7BX5MqQre8ftN43943ZnlwZjh9wbiMcA4AQoAGgsTJwr8jDoVq5H980f2vf5vvYPLYpE2hde4H3Lzm32SFZ6D0GgGb+Pze2gUi4JtCjAAAAAElFTkSuQmCC;" vertex="1" parent="1">
          <mxGeometry x="532" y="498" width="130" height="130" as="geometry" />
        </mxCell>
      </root>
    </mxGraphModel>
  </diagram>
</mxfile>
